<svg width="343" height="159" viewBox="0 0 343 159" fill="none" xmlns="http://www.w3.org/2000/svg">
<path d="M24.582 55.8047C25.8584 53.8942 27.2881 51.9793 29.35 50.8552C31.9087 49.4603 35.3237 49.2293 38.0556 50.2364C40.2592 51.0488 42.7313 52.8888 43.61 55.14C44.123 56.4545 44.1508 59.0983 42.8783 60.0915C41.7247 60.9919 40.0409 58.9267 39.831 57.9959C39.2748 55.5297 41.004 52.8819 43.3598 52.2081C47.7561 50.9507 52.777 52.0989 56.3502 54.8515C58.1297 56.2223 59.1246 57.7058 59.7773 59.772" stroke="#EE46BC" stroke-width="2.81481" stroke-linecap="round"/>
<path d="M71.5332 18C72.5687 18.1014 73.6012 18.6585 74.4921 19.1428C76.9328 20.4699 78.8124 22.2425 80.1179 24.7148C81.4196 27.1798 82.3893 29.9868 81.1231 32.6539C80.3687 34.2429 78.9394 35.477 77.0803 34.9659C75.8279 34.6216 75.2707 33.5146 75.5202 32.2936C75.8461 30.6993 77.3701 30.1141 78.8849 30.2723C82.1757 30.616 84.4815 34.0462 84.8105 37.1131" stroke="#FDB022" stroke-width="2.81481" stroke-linecap="round"/>
<path d="M69.6272 42.9189L80.5901 48.5861L76.1693 54.6523L67.4168 45.952L69.6272 42.9189Z" fill="#2E90FA"/>
<path d="M36.3389 99.619L25.2557 105.047L23.0177 97.8821L35.2199 96.0366L36.3389 99.619Z" fill="#2ED3B7"/>
<path d="M33.2845 73.5383L20.9946 73.939L22.1291 68.3654L33.2845 73.5383Z" fill="#7A5AF8"/>
<path d="M47.5151 75.4191L55.106 84.3732L47.1436 87.152L47.5151 75.4191Z" fill="#EE46BC"/>
<circle cx="51.2427" cy="34.2435" r="3.75309" transform="rotate(36.0826 51.2427 34.2435)" fill="#7A5AF8"/>
<circle cx="100.933" cy="27.9326" r="2.81481" transform="rotate(36.0826 100.933 27.9326)" fill="#2ED3B7"/>
<path d="M308.508 109.278L319.033 102.833L321.934 109.756L309.959 112.739L308.508 109.278Z" fill="#FDB022"/>
<path d="M284.541 60.431L278.001 49.9651L284.897 47.0018L287.989 58.9494L284.541 60.431Z" fill="#FDB022"/>
<path d="M327.04 96.7932L321.783 91.5009L325.451 88.8302L328.874 95.4579L327.04 96.7932Z" fill="#2E90FA"/>
<path d="M272.716 30.328L276.739 24.0465L280.144 27.046L274.418 31.8278L272.716 30.328Z" fill="#2E90FA"/>
<path d="M301.765 64.2005L305.826 52.5942L310.615 55.6637L301.765 64.2005Z" fill="#EE46BC"/>
<circle cx="318.389" cy="133.389" r="3.75309" transform="rotate(10.7825 318.389 133.389)" fill="#2ED3B7"/>
<path d="M330.655 66.8185L320.959 74.3804L318.593 69.2078L330.655 66.8185Z" fill="#7A5AF8"/>
<path d="M289.574 86.082C290.038 85.1507 290.926 84.3845 291.696 83.7247C293.806 81.917 296.132 80.7926 298.907 80.4537C301.674 80.1159 304.643 80.2102 306.683 82.3437C307.899 83.6148 308.543 85.39 307.403 86.9449C306.635 87.9924 305.402 88.1186 304.35 87.4503C302.977 86.5777 302.973 84.9451 303.661 83.5862C305.154 80.6339 309.181 79.7019 312.164 80.4873" stroke="#EE46BC" stroke-width="2.81481" stroke-linecap="round"/>
<circle cx="248.487" cy="29.4862" r="4.69136" transform="rotate(10.7825 248.487 29.4862)" fill="#7A5AF8"/>
</svg>
