<svg width="25" height="25" viewBox="0 0 25 25" fill="none" xmlns="http://www.w3.org/2000/svg">
<g id="archive">
<path id="Icon" d="M4.5 8.4966C4.33599 8.49236 4.2169 8.48287 4.10982 8.46157C3.31644 8.30376 2.69624 7.68356 2.53843 6.89018C2.5 6.69698 2.5 6.46466 2.5 6C2.5 5.53534 2.5 5.30302 2.53843 5.10982C2.69624 4.31644 3.31644 3.69624 4.10982 3.53843C4.30302 3.5 4.53534 3.5 5 3.5H20C20.4647 3.5 20.697 3.5 20.8902 3.53843C21.6836 3.69624 22.3038 4.31644 22.4616 5.10982C22.5 5.30302 22.5 5.53534 22.5 6C22.5 6.46466 22.5 6.69698 22.4616 6.89018C22.3038 7.68356 21.6836 8.30376 20.8902 8.46157C20.7831 8.48287 20.664 8.49236 20.5 8.4966M10.5 13.5H14.5M4.5 8.5H20.5V16.7C20.5 18.3802 20.5 19.2202 20.173 19.862C19.8854 20.4265 19.4265 20.8854 18.862 21.173C18.2202 21.5 17.3802 21.5 15.7 21.5H9.3C7.61984 21.5 6.77976 21.5 6.13803 21.173C5.57354 20.8854 5.1146 20.4265 4.82698 19.862C4.5 19.2202 4.5 18.3802 4.5 16.7V8.5Z" stroke="black" stroke-width="1.5" stroke-linecap="round" stroke-linejoin="round"/>
</g>
</svg>
