<svg width="16" height="16" viewBox="0 0 16 16" fill="none" xmlns="http://www.w3.org/2000/svg">
<g id="face-wink" clip-path="url(#clip0_22159_20103)">
<path id="Icon" d="M5.33398 9.33398C5.33398 9.33398 6.33398 10.6673 8.00065 10.6673C9.66732 10.6673 10.6673 9.33398 10.6673 9.33398M10.0007 6.00065H10.0073M5.33398 6.00065H6.66732M14.6673 8.00065C14.6673 11.6826 11.6826 14.6673 8.00065 14.6673C4.31875 14.6673 1.33398 11.6826 1.33398 8.00065C1.33398 4.31875 4.31875 1.33398 8.00065 1.33398C11.6826 1.33398 14.6673 4.31875 14.6673 8.00065ZM10.334 6.00065C10.334 6.18475 10.1847 6.33398 10.0007 6.33398C9.81656 6.33398 9.66732 6.18475 9.66732 6.00065C9.66732 5.81656 9.81656 5.66732 10.0007 5.66732C10.1847 5.66732 10.334 5.81656 10.334 6.00065Z" stroke="#667085" stroke-width="1.5" stroke-linecap="round" stroke-linejoin="round"/>
</g>
<defs>
<clipPath id="clip0_22159_20103">
<rect width="16" height="16" fill="white"/>
</clipPath>
</defs>
</svg>
