<svg width="16" height="16" viewBox="0 0 16 16" fill="none" xmlns="http://www.w3.org/2000/svg">
<g id="announcement-02">
<path id="Icon" d="M2.66732 9.33425L3.71708 13.5333C3.74661 13.6514 3.76137 13.7104 3.77883 13.762C3.94943 14.2657 4.403 14.6198 4.933 14.6631C4.98725 14.6676 5.04812 14.6676 5.16985 14.6676C5.32228 14.6676 5.39849 14.6676 5.4627 14.6614C6.09731 14.5998 6.59954 14.0976 6.66109 13.463C6.66732 13.3988 6.66732 13.3225 6.66732 13.1701V3.66758M12.334 9.00092C13.6227 9.00092 14.6673 7.95625 14.6673 6.66758C14.6673 5.37892 13.6227 4.33425 12.334 4.33425M6.83398 3.66758H4.33398C2.67713 3.66758 1.33398 5.01073 1.33398 6.66759C1.33399 8.32444 2.67713 9.66758 4.33398 9.66758H6.83399C8.0116 9.66758 9.45215 10.2988 10.5635 10.9047C11.2119 11.2581 11.536 11.4348 11.7484 11.4088C11.9453 11.3847 12.0941 11.2963 12.2095 11.135C12.334 10.961 12.334 10.6129 12.334 9.91673V3.41844C12.334 2.72225 12.334 2.37415 12.2095 2.20018C12.0941 2.03885 11.9453 1.95045 11.7484 1.92634C11.536 1.90033 11.2119 2.07705 10.5635 2.43049C9.45215 3.03633 8.0116 3.66758 6.83398 3.66758Z" stroke="#667085" stroke-width="1.5" stroke-linecap="round" stroke-linejoin="round"/>
</g>
</svg>
