<svg width="32" height="32" viewBox="0 0 32 32" fill="none" xmlns="http://www.w3.org/2000/svg">
<g id="share-07" clip-path="url(#clip0_820_4596)">
<g id="Icon">
<path d="M24 10.667C26.2091 10.667 28 8.87613 28 6.66699C28 4.45785 26.2091 2.66699 24 2.66699C21.7909 2.66699 20 4.45785 20 6.66699C20 8.87613 21.7909 10.667 24 10.667Z" fill="white" fill-opacity="0.6"/>
<path d="M8 20.0003C10.2091 20.0003 12 18.2095 12 16.0003C12 13.7912 10.2091 12.0003 8 12.0003C5.79086 12.0003 4 13.7912 4 16.0003C4 18.2095 5.79086 20.0003 8 20.0003Z" fill="white" fill-opacity="0.6"/>
<path d="M24 29.3337C26.2091 29.3337 28 27.5428 28 25.3337C28 23.1245 26.2091 21.3337 24 21.3337C21.7909 21.3337 20 23.1245 20 25.3337C20 27.5428 21.7909 29.3337 24 29.3337Z" fill="white" fill-opacity="0.6"/>
</g>
<g id="Icon (Stroke)" filter="url(#filter0_dd_820_4596)">
<path fill-rule="evenodd" clip-rule="evenodd" d="M24 3.3668C22.1775 3.3668 20.7 4.84426 20.7 6.6668C20.7 7.25109 20.8519 7.79991 21.1182 8.27595C21.1299 8.29244 21.1409 8.30956 21.1513 8.32731C21.1615 8.34491 21.1709 8.36278 21.1795 8.38086C21.7587 9.3318 22.8052 9.9668 24 9.9668C25.8225 9.9668 27.3 8.48934 27.3 6.6668C27.3 4.84426 25.8225 3.3668 24 3.3668ZM20.3376 9.61264C21.1991 10.6824 22.5196 11.3668 24 11.3668C26.5957 11.3668 28.7 9.26254 28.7 6.6668C28.7 4.07106 26.5957 1.9668 24 1.9668C21.4043 1.9668 19.3 4.07106 19.3 6.6668C19.3 7.28035 19.4176 7.86644 19.6314 8.40378L11.6625 13.0543C10.801 11.9846 9.48041 11.3001 8 11.3001C5.40426 11.3001 3.3 13.4044 3.3 16.0001C3.3 18.5959 5.40426 20.7001 8 20.7001C9.48056 20.7001 10.8012 20.0155 11.6627 18.9457L19.6338 23.5906C19.4184 24.1295 19.3 24.7177 19.3 25.3335C19.3 27.9292 21.4043 30.0335 24 30.0335C26.5957 30.0335 28.7 27.9292 28.7 25.3335C28.7 22.7377 26.5957 20.6335 24 20.6335C22.5219 20.6335 21.2031 21.3158 20.3416 22.3827L12.3688 17.7367C12.5825 17.1995 12.7 16.6135 12.7 16.0001C12.7 15.3866 12.5824 14.8005 12.3686 14.2631L20.3376 9.61264ZM10.8205 14.2861C10.8291 14.3041 10.8385 14.322 10.8488 14.3396C10.8591 14.3574 10.8701 14.3745 10.8818 14.391C11.1482 14.867 11.3 15.4158 11.3 16.0001C11.3 16.5844 11.1482 17.1332 10.8818 17.6093C10.8701 17.6259 10.859 17.6431 10.8485 17.661C10.8383 17.6785 10.829 17.6962 10.8205 17.7142C10.2413 18.6651 9.19483 19.3001 8 19.3001C6.17746 19.3001 4.7 17.8227 4.7 16.0001C4.7 14.1776 6.17746 12.7001 8 12.7001C9.19483 12.7001 10.2413 13.3351 10.8205 14.2861ZM21.0876 23.7804C21.1162 23.7476 21.1421 23.7116 21.1648 23.6726C21.1869 23.6347 21.205 23.5956 21.2193 23.5557C21.8058 22.6402 22.8321 22.0335 24 22.0335C25.8225 22.0335 27.3 23.5109 27.3 25.3335C27.3 27.156 25.8225 28.6335 24 28.6335C22.1775 28.6335 20.7 27.156 20.7 25.3335C20.7 24.772 20.8402 24.2433 21.0876 23.7804Z" fill="white"/>
</g>
</g>
<defs>
<filter id="filter0_dd_820_4596" x="0.300003" y="-0.0332031" width="31.4" height="34.0664" filterUnits="userSpaceOnUse" color-interpolation-filters="sRGB">
<feFlood flood-opacity="0" result="BackgroundImageFix"/>
<feColorMatrix in="SourceAlpha" type="matrix" values="0 0 0 0 0 0 0 0 0 0 0 0 0 0 0 0 0 0 127 0" result="hardAlpha"/>
<feOffset dy="1"/>
<feGaussianBlur stdDeviation="1"/>
<feComposite in2="hardAlpha" operator="out"/>
<feColorMatrix type="matrix" values="0 0 0 0 0.0627451 0 0 0 0 0.0941176 0 0 0 0 0.156863 0 0 0 0.06 0"/>
<feBlend mode="normal" in2="BackgroundImageFix" result="effect1_dropShadow_820_4596"/>
<feColorMatrix in="SourceAlpha" type="matrix" values="0 0 0 0 0 0 0 0 0 0 0 0 0 0 0 0 0 0 127 0" result="hardAlpha"/>
<feOffset dy="1"/>
<feGaussianBlur stdDeviation="1.5"/>
<feComposite in2="hardAlpha" operator="out"/>
<feColorMatrix type="matrix" values="0 0 0 0 0.0627451 0 0 0 0 0.0941176 0 0 0 0 0.156863 0 0 0 0.1 0"/>
<feBlend mode="normal" in2="effect1_dropShadow_820_4596" result="effect2_dropShadow_820_4596"/>
<feBlend mode="normal" in="SourceGraphic" in2="effect2_dropShadow_820_4596" result="shape"/>
</filter>
<clipPath id="clip0_820_4596">
<rect width="32" height="32" fill="white"/>
</clipPath>
</defs>
</svg>
