<svg width="54" height="103" viewBox="0 0 54 103" fill="none" xmlns="http://www.w3.org/2000/svg">
<mask id="path-1-inside-1_21897_17142" fill="white">
<path d="M24.2939 5.86328L52.3058 13.369L49.7176 23.0283L21.7058 15.5225L24.2939 5.86328Z"/>
</mask>
<path d="M24.2939 5.86328L52.3058 13.369L49.7176 23.0283L21.7058 15.5225L24.2939 5.86328Z" fill="#EAECF0"/>
<path d="M45.5443 11.5573L42.9561 21.2166L56.4791 24.84L59.0673 15.1808L45.5443 11.5573ZM28.4672 17.3343L31.0554 7.67501L17.5325 4.05155L14.9443 13.7108L28.4672 17.3343Z" fill="#98A2B3" mask="url(#path-1-inside-1_21897_17142)"/>
<mask id="path-3-inside-2_21897_17142" fill="white">
<path d="M21.447 16.4893L49.4589 23.995L46.8707 33.6543L18.8588 26.1485L21.447 16.4893Z"/>
</mask>
<path d="M21.447 16.4893L49.4589 23.995L46.8707 33.6543L18.8588 26.1485L21.447 16.4893Z" fill="#EAECF0"/>
<path d="M42.6974 22.1833L40.1092 31.8425L53.6322 35.466L56.2204 25.8067L42.6974 22.1833ZM25.6203 27.9602L28.2085 18.301L14.6855 14.6775L12.0974 24.3368L25.6203 27.9602Z" fill="#98A2B3" mask="url(#path-3-inside-2_21897_17142)"/>
<mask id="path-5-inside-3_21897_17142" fill="white">
<path d="M18.5999 27.1143L46.6117 34.62L44.0235 44.2793L16.0117 36.7735L18.5999 27.1143Z"/>
</mask>
<path d="M18.5999 27.1143L46.6117 34.62L44.0235 44.2793L16.0117 36.7735L18.5999 27.1143Z" fill="#EAECF0"/>
<path d="M39.8502 32.8083L37.262 42.4675L50.785 46.091L53.3732 36.4317L39.8502 32.8083ZM22.7731 38.5852L25.3613 28.926L11.8384 25.3025L9.25018 34.9618L22.7731 38.5852Z" fill="#98A2B3" mask="url(#path-5-inside-3_21897_17142)"/>
<mask id="path-7-inside-4_21897_17142" fill="white">
<path d="M15.7527 37.7393L43.7645 45.245L41.1763 54.9043L13.1645 47.3985L15.7527 37.7393Z"/>
</mask>
<path d="M15.7527 37.7393L43.7645 45.245L41.1763 54.9043L13.1645 47.3985L15.7527 37.7393Z" fill="#EAECF0"/>
<path d="M37.0031 43.4333L34.4149 53.0925L47.9378 56.716L50.526 47.0567L37.0031 43.4333ZM19.926 49.2102L22.5142 39.551L8.9912 35.9275L6.40301 45.5868L19.926 49.2102Z" fill="#98A2B3" mask="url(#path-7-inside-4_21897_17142)"/>
<mask id="path-9-inside-5_21897_17142" fill="white">
<path d="M12.9058 48.3643L40.9176 55.87L38.3294 65.5293L10.3176 58.0235L12.9058 48.3643Z"/>
</mask>
<path d="M12.9058 48.3643L40.9176 55.87L38.3294 65.5293L10.3176 58.0235L12.9058 48.3643Z" fill="#EAECF0"/>
<path d="M34.1561 54.0583L31.5679 63.7175L45.0909 67.341L47.6791 57.6817L34.1561 54.0583ZM17.0791 59.8352L19.6672 50.176L6.14428 46.5525L3.55609 56.2118L17.0791 59.8352Z" fill="#98A2B3" mask="url(#path-9-inside-5_21897_17142)"/>
<mask id="path-11-inside-6_21897_17142" fill="white">
<path d="M10.0588 58.9893L38.0707 66.495L35.4825 76.1543L7.47065 68.6485L10.0588 58.9893Z"/>
</mask>
<path d="M10.0588 58.9893L38.0707 66.495L35.4825 76.1543L7.47065 68.6485L10.0588 58.9893Z" fill="#EAECF0"/>
<path d="M31.3092 64.6833L28.721 74.3425L42.244 77.966L44.8322 68.3067L31.3092 64.6833ZM14.2321 70.4602L16.8203 60.801L3.29736 57.1775L0.709167 66.8368L14.2321 70.4602Z" fill="#98A2B3" mask="url(#path-11-inside-6_21897_17142)"/>
<mask id="path-13-inside-7_21897_17142" fill="white">
<path d="M7.21167 69.6152L35.2235 77.121L32.6353 86.7802L4.62348 79.2745L7.21167 69.6152Z"/>
</mask>
<path d="M7.21167 69.6152L35.2235 77.121L32.6353 86.7802L4.62348 79.2745L7.21167 69.6152Z" fill="#EAECF0"/>
<path d="M28.462 75.3093L25.8738 84.9685L39.3968 88.592L41.985 78.9327L28.462 75.3093ZM11.385 81.0862L13.9732 71.427L0.450189 67.8035L-2.138 77.4628L11.385 81.0862Z" fill="#98A2B3" mask="url(#path-13-inside-7_21897_17142)"/>
<mask id="path-15-inside-8_21897_17142" fill="white">
<path d="M4.36475 80.2402L32.3766 87.746L29.7884 97.4052L1.77656 89.8995L4.36475 80.2402Z"/>
</mask>
<path d="M4.36475 80.2402L32.3766 87.746L29.7884 97.4052L1.77656 89.8995L4.36475 80.2402Z" fill="#EAECF0"/>
<path d="M25.6151 85.9343L23.0269 95.5935L36.5499 99.217L39.1381 89.5577L25.6151 85.9343ZM8.53804 91.7112L11.1262 82.052L-2.39673 78.4285L-4.98493 88.0878L8.53804 91.7112Z" fill="#98A2B3" mask="url(#path-15-inside-8_21897_17142)"/>
<path d="M27.261 2.51758L2.932 93.3146" stroke="#D0D5DD" stroke-width="5" stroke-linecap="round"/>
<path d="M51.4094 8.98828L27.0804 99.7853" stroke="#D0D5DD" stroke-width="5" stroke-linecap="round"/>
</svg>
