<svg width="375" height="93" viewBox="0 0 375 93" fill="none" xmlns="http://www.w3.org/2000/svg">
    <path
        d="M124.717 35.9785C124.061 35.1715 122.589 34.7522 121.099 34.7208C119.503 34.6788 117.889 35.0771 117.126 35.9157L98.8599 56.2078L105.776 61.2704L121.099 54.9501L130.232 57.8429L139.826 54.6566L124.734 35.9785H124.717Z"
        fill="#DDFAE4" />
    <path
        d="M139.81 54.6553L130.215 57.8417L121.082 54.9488L105.76 61.2586L98.8431 56.1961L65.7329 92.9966H121.082H170.81L139.81 54.6553Z"
        fill="#57C874" />
    <path
        d="M69.8515 25.9533C69.0712 24.9982 67.3332 24.5077 65.5598 24.4647C63.6799 24.4217 61.7469 24.8777 60.8601 25.8672L39.2241 49.7274L47.3997 55.6817L65.5598 48.256L76.3778 51.6548L87.7456 47.9118L69.8692 25.9533H69.8515Z"
        fill="#DDFAE4" />
    <path
        d="M82.277 41.2217L74.8225 44.99L65.5643 41.5809L51.3063 47.9132L46.9334 41.2217L0 93.0006H65.5643H124.46L82.277 41.2217Z"
        fill="#56D576" />
    <path
        d="M328.907 59.4584C328.251 58.9862 326.779 58.7409 325.289 58.7225C323.693 58.6979 322.079 58.931 321.317 59.4216L303.05 71.2943L309.967 74.2564L325.289 70.5584L334.423 72.251L344.017 70.3867L328.925 59.4584H328.907Z"
        fill="#DDFAE4" />
    <path
        d="M344 70.3857L334.406 72.2501L325.273 70.5575L309.95 74.2493L303.034 71.2872L269.923 92.8189H325.273H375L344 70.3857Z"
        fill="#57C874" />
    <path
        d="M274.042 53.5923C273.261 53.0335 271.523 52.7465 269.75 52.7214C267.87 52.6962 265.937 52.963 265.05 53.542L243.414 67.5023L251.59 70.9861L269.75 66.6414L280.568 68.63L291.936 66.4401L274.059 53.5923H274.042Z"
        fill="#DDFAE4" />
    <path
        d="M286.467 62.5254L279.013 64.7302L269.755 62.7356L255.497 66.4406L251.124 62.5254L204.19 92.8208H269.755H328.651L286.467 62.5254Z"
        fill="#56D576" />
</svg>