<svg width="32" height="32" viewBox="0 0 32 32" fill="none" xmlns="http://www.w3.org/2000/svg">
<g clip-path="url(#clip0_22119_39472)">
<circle cx="16" cy="16" r="16" fill="url(#paint0_linear_22119_39472)"/>
<path d="M21.9419 10.6771V20.6771H19.8701V10.6771H21.9419Z" fill="white"/>
<path d="M11.3889 20.6771H9.15137L12.6182 10.6771H15.2839L18.7369 20.6771H16.5132L15.7673 18.3705H12.1486L11.3889 20.6771ZM12.6734 16.7545H15.2425L13.9856 12.9285H13.9165L12.6734 16.7545Z" fill="white"/>
<path fill-rule="evenodd" clip-rule="evenodd" d="M10.8219 6.24531C12.1228 6.37224 13.067 6.75168 13.067 7.20003C13.067 7.64839 12.1228 8.02782 10.8219 8.15475C10.6949 9.45574 10.3155 10.4 9.86712 10.4C9.41876 10.4 9.03931 9.45575 8.91239 8.15478C7.61133 8.02788 6.66699 7.64842 6.66699 7.20003C6.66699 6.75165 7.61133 6.37219 8.91239 6.24529C9.0393 4.94428 9.41875 4 9.86712 4C10.3155 4 10.695 4.9443 10.8219 6.24531Z" fill="white"/>
<path fill-rule="evenodd" clip-rule="evenodd" d="M6.18518 11.762C7.19604 11.8214 7.94677 12.0426 7.94677 12.3064C7.94677 12.5703 7.19603 12.7915 6.18518 12.8509C6.12574 13.8619 5.90451 14.6128 5.64068 14.6128C5.37686 14.6128 5.15563 13.8619 5.09619 12.851C4.08502 12.7916 3.33398 12.5703 3.33398 12.3064C3.33398 12.0426 4.08502 11.8213 5.09618 11.7619C5.15561 10.7509 5.37685 10 5.64068 10C5.90452 10 6.12576 10.7509 6.18518 11.762Z" fill="white"/>
</g>
<defs>
<linearGradient id="paint0_linear_22119_39472" x1="8" y1="5.00679e-07" x2="24.8" y2="32" gradientUnits="userSpaceOnUse">
<stop stop-color="#FF0DDF"/>
<stop offset="1" stop-color="#7A5AF8"/>
</linearGradient>
<clipPath id="clip0_22119_39472">
<rect width="32" height="32" fill="white"/>
</clipPath>
</defs>
</svg>
