<svg width="145" height="38" viewBox="0 0 145 38" fill="none" xmlns="http://www.w3.org/2000/svg">
<g filter="url(#filter0_d_22186_18441)">
<path fill-rule="evenodd" clip-rule="evenodd" d="M15.5119 10.5864C14.7494 11.9414 14.3681 13.6299 14.3727 15.0324C14.3752 15.8297 14.502 16.6303 14.8346 17.2518C15.0048 17.5699 15.2459 17.8721 15.5826 18.084C15.9298 18.3026 16.3312 18.3945 16.754 18.3554C17.6375 18.2737 18.1149 17.5726 18.344 16.9622C18.5816 16.329 18.6639 15.5419 18.6431 14.7522C18.6071 13.3937 18.2565 11.7884 17.5726 10.5613C18.0722 10.0159 18.6324 9.75333 19.2388 9.78646C19.7559 9.81472 20.2661 10.0794 20.7401 10.5753C20.0506 11.882 19.7305 13.5731 19.7715 14.9639C19.795 15.7591 19.9385 16.5641 20.286 17.1773C20.4643 17.4918 20.7175 17.7928 21.0724 17.9918C21.4403 18.1982 21.8565 18.2601 22.2816 18.1851C23.1067 18.0397 23.5944 17.4284 23.8406 16.7885C24.0826 16.1594 24.1436 15.397 24.0924 14.6371C24.0034 13.3146 23.5582 11.782 22.7998 10.538C23.1171 10.2198 23.4349 10.0967 23.7406 10.1091C24.611 10.1446 25.487 10.687 26.1788 11.7707C26.8689 12.8517 27.3226 14.4058 27.3226 16.2397C27.3226 18.0896 26.8662 20.4276 25.6248 22.3144C24.4091 24.162 22.4199 25.6177 19.2048 25.7625C16.7805 25.8716 14.8815 25.3068 13.4039 24.2646C12.4873 23.6181 11.7077 22.77 11.0604 21.7403L9.51868 22.4306C10.2879 23.7056 11.2512 24.7914 12.4335 25.6254C14.2584 26.9125 16.5387 27.5525 19.2806 27.429C23.0644 27.2587 25.5345 25.4984 27.0284 23.2278C28.4966 20.9964 29 18.3139 29 16.2397C29 14.1495 28.4855 12.2716 27.5949 10.8765C26.7061 9.48426 25.3889 8.50667 23.8093 8.44229C22.9804 8.4085 22.2955 8.73856 21.7542 9.22712C21.1032 8.61567 20.2928 8.1733 19.3308 8.12073C18.1808 8.05789 17.2407 8.54027 16.518 9.24814C16.0419 8.85591 15.4586 8.59017 14.7668 8.59017C13.2207 8.59017 11.9612 9.7878 11.2217 11.2913C10.4607 12.8384 10.1242 14.9156 10.5022 17.1576C11.1995 21.2933 14.8817 23.9106 19.3834 23.4547C22.6273 23.1263 24.5153 21.1406 25.425 19.5569L23.7702 19.0548C22.9978 20.2297 21.5558 21.5579 19.2135 21.7951C15.4955 22.1716 12.6921 20.0584 12.1565 16.8817C11.8313 14.9527 12.1344 13.2322 12.7285 12.0244C13.344 10.773 14.1549 10.2584 14.7668 10.2584C14.9992 10.2584 15.2506 10.351 15.5119 10.5864ZM21.827 12.3128C21.5599 13.1432 21.4237 14.0827 21.4482 14.915C21.4681 15.5878 21.591 16.0825 21.7473 16.3582C21.8209 16.4881 21.8788 16.5289 21.8963 16.5387L21.8972 16.5392C21.9028 16.5426 21.9219 16.5543 21.9889 16.5425C22.0353 16.5343 22.1544 16.5031 22.2739 16.1924C22.3976 15.8709 22.461 15.3746 22.4188 14.7486C22.3664 13.971 22.1594 13.104 21.827 12.3128ZM16.5362 12.3633C16.2172 13.232 16.0474 14.1901 16.05 15.027C16.0522 15.6919 16.1637 16.1846 16.3153 16.468C16.3872 16.6023 16.4496 16.6554 16.4797 16.6743C16.498 16.6859 16.5242 16.6993 16.5873 16.6952C16.6159 16.676 16.6877 16.6047 16.7724 16.379C16.9065 16.0216 16.9841 15.4707 16.9662 14.796C16.9449 13.9913 16.7924 13.1248 16.5362 12.3633ZM16.574 16.7013C16.5738 16.7006 16.5774 16.6983 16.5855 16.6964C16.5782 16.701 16.5742 16.702 16.574 16.7013Z" fill="#FF0DDF"/>
</g>
<path d="M138.18 23.7014C134.868 23.7014 132.562 21.1786 132.562 17.6974C132.562 14.2162 134.868 11.6934 138.18 11.6934C139.698 11.6934 140.801 12.2214 141.491 13.1406V11.9672H145V23.4276H141.491V22.2542C140.801 23.1734 139.698 23.7014 138.18 23.7014ZM138.732 20.7287C140.447 20.7287 141.551 19.4575 141.551 17.6974C141.551 15.9373 140.447 14.666 138.732 14.666C137.056 14.666 135.992 15.9373 135.992 17.6974C135.992 19.4575 137.056 20.7287 138.732 20.7287Z" fill="#FF0DDF"/>
<path d="M124.197 23.4276V11.9672H127.706V13.1406C128.396 12.2214 129.46 11.6934 130.938 11.6934C131.589 11.6934 132.003 11.7325 132.456 11.8889L132.496 15.155C132.003 14.9007 131.392 14.7638 130.702 14.7638C128.829 14.7638 127.706 15.8199 127.706 17.5605V23.4276H124.197Z" fill="#FF0DDF"/>
<path d="M115.487 23.7014C112.175 23.7014 109.869 21.1786 109.869 17.6974C109.869 14.2162 112.175 11.6934 115.487 11.6934C117.004 11.6934 118.108 12.2214 118.798 13.1406V11.9672H122.307V23.4276H118.798V22.2542C118.108 23.1734 117.004 23.7014 115.487 23.7014ZM116.038 20.7287C117.753 20.7287 118.857 19.4575 118.857 17.6974C118.857 15.9373 117.753 14.666 116.038 14.666C114.363 14.666 113.299 15.9373 113.299 17.6974C113.299 19.4575 114.363 20.7287 116.038 20.7287Z" fill="#FF0DDF"/>
<path d="M101.867 23.7018C98.5556 23.7018 96.2494 21.1789 96.2494 17.6977C96.2494 14.2166 98.5556 11.6937 101.867 11.6937C103.385 11.6937 104.489 12.2217 105.179 13.1409V7H108.687V23.428H105.179V22.2545C104.489 23.1737 103.385 23.7018 101.867 23.7018ZM102.419 20.7291C104.134 20.7291 105.238 19.4579 105.238 17.6977C105.238 15.9376 104.134 14.6664 102.419 14.6664C100.744 14.6664 99.6792 15.9376 99.6792 17.6977C99.6792 19.4579 100.744 20.7291 102.419 20.7291Z" fill="#FF0DDF"/>
<path d="M88.0114 23.7014C84.6998 23.7014 82.3936 21.1786 82.3936 17.6974C82.3936 14.2162 84.6998 11.6934 88.0114 11.6934C89.5291 11.6934 90.633 12.2214 91.3229 13.1406V11.9672H94.8315V23.4276H91.3229V22.2542C90.633 23.1734 89.5291 23.7014 88.0114 23.7014ZM88.5633 20.7287C90.2782 20.7287 91.382 19.4575 91.382 17.6974C91.382 15.9373 90.2782 14.666 88.5633 14.666C86.8878 14.666 85.8234 15.9373 85.8234 17.6974C85.8234 19.4575 86.8878 20.7287 88.5633 20.7287Z" fill="#FF0DDF"/>
<path d="M69.9478 23.4276V11.9672H73.4564V13.1406C74.1463 12.2214 75.2107 11.6934 76.6891 11.6934C79.3698 11.6934 81.203 13.6295 81.203 16.7978V23.4276H77.6943V17.3845C77.6943 15.6439 76.9847 14.6856 75.6641 14.6856C74.2843 14.6856 73.4564 15.7612 73.4564 17.5409V23.4276H69.9478Z" fill="#FF0DDF"/>
<path d="M61.2371 23.7014C57.9256 23.7014 55.6194 21.1786 55.6194 17.6974C55.6194 14.2162 57.9256 11.6934 61.2371 11.6934C62.7549 11.6934 63.8588 12.2214 64.5486 13.1406V11.9672H68.0573V23.4276H64.5486V22.2542C63.8588 23.1734 62.7549 23.7014 61.2371 23.7014ZM61.7891 20.7287C63.5039 20.7287 64.6078 19.4575 64.6078 17.6974C64.6078 15.9373 63.5039 14.666 61.7891 14.666C60.1136 14.666 59.0492 15.9373 59.0492 17.6974C59.0492 19.4575 60.1136 20.7287 61.7891 20.7287Z" fill="#FF0DDF"/>
<path d="M48.4561 28.4197C45.0416 28.4197 43.1578 26.4881 42.7849 24.2835H46.3171C46.4937 25.0249 47.1609 25.4931 48.4561 25.4931C49.9082 25.4931 50.8894 24.5566 50.8894 23.1323V21.9227C50.2025 22.8397 49.1036 23.3665 47.5926 23.3665C44.2959 23.3665 42 20.9277 42 17.5719C42 14.1575 44.2959 11.6797 47.5926 11.6797C49.1036 11.6797 50.2025 12.2065 50.8894 13.1235V11.9528H54.3823V23.1714C54.3823 26.2735 51.8901 28.4197 48.4561 28.4197ZM48.1421 20.4984C49.8493 20.4984 50.9482 19.2693 50.9482 17.5719C50.9482 15.8744 49.8493 14.6453 48.1421 14.6453C46.4741 14.6453 45.4145 15.8744 45.4145 17.5719C45.4145 19.2693 46.4741 20.4984 48.1421 20.4984Z" fill="#FF0DDF"/>
<defs>
<filter id="filter0_d_22186_18441" x="0" y="0" width="38" height="38" filterUnits="userSpaceOnUse" color-interpolation-filters="sRGB">
<feFlood flood-opacity="0" result="BackgroundImageFix"/>
<feColorMatrix in="SourceAlpha" type="matrix" values="0 0 0 0 0 0 0 0 0 0 0 0 0 0 0 0 0 0 127 0" result="hardAlpha"/>
<feOffset dy="1"/>
<feGaussianBlur stdDeviation="1.5"/>
<feColorMatrix type="matrix" values="0 0 0 0 0.0627451 0 0 0 0 0.0941176 0 0 0 0 0.156863 0 0 0 0.1 0"/>
<feBlend mode="normal" in2="BackgroundImageFix" result="effect1_dropShadow_22186_18441"/>
<feBlend mode="normal" in="SourceGraphic" in2="effect1_dropShadow_22186_18441" result="shape"/>
</filter>
</defs>
</svg>
