<svg width="25" height="24" viewBox="0 0 25 24" fill="none" xmlns="http://www.w3.org/2000/svg"
    xmlns:xlink="http://www.w3.org/1999/xlink">
    <g clip-path="url(#clip0_712_10858)">
        <g clip-path="url(#clip1_712_10858)">
            <g clip-path="url(#clip2_712_10858)">
                <path
                    d="M2.89019 18.0983L11.1151 3.89171C11.5696 3.10655 11.7969 2.71396 12.0935 2.58211C12.3521 2.4671 12.6474 2.4671 12.9061 2.58211C13.2026 2.71396 13.4299 3.10654 13.8844 3.89171L22.1093 18.0983C22.5655 18.8863 22.7936 19.2803 22.7599 19.6037C22.7305 19.8857 22.5827 20.142 22.3534 20.3088C22.0904 20.5 21.6352 20.5 20.7246 20.5H4.27487C3.36435 20.5 2.90908 20.5 2.64613 20.3088C2.41677 20.142 2.269 19.8857 2.23959 19.6037C2.20588 19.2803 2.43398 18.8863 2.89019 18.0983Z"
                    fill="#D92D20" stroke="#D92D20" stroke-width="1.4" stroke-linecap="round"
                    stroke-linejoin="round" />
                <path fill-rule="evenodd" clip-rule="evenodd"
                    d="M12.4998 8.29999C12.8864 8.29999 13.1998 8.61339 13.1998 8.99999V13C13.1998 13.3866 12.8864 13.7 12.4998 13.7C12.1132 13.7 11.7998 13.3866 11.7998 13V8.99999C11.7998 8.61339 12.1132 8.29999 12.4998 8.29999ZM11.7998 17C11.7998 16.6134 12.1132 16.3 12.4998 16.3H12.5098C12.8964 16.3 13.2098 16.6134 13.2098 17C13.2098 17.3866 12.8964 17.7 12.5098 17.7H12.4998C12.1132 17.7 11.7998 17.3866 11.7998 17Z"
                    fill="white" />
            </g>
        </g>
    </g>
</svg>