<svg width="301" height="300" viewBox="0 0 301 300" fill="none" xmlns="http://www.w3.org/2000/svg">
<g clip-path="url(#clip0_2634_18820)">
<rect x="0.5" width="300" height="300" rx="150" fill="url(#paint0_linear_2634_18820)"/>
<rect x="174.367" y="209.882" width="131.027" height="52.0984" rx="12.0484" fill="#FF971E"/>
<rect x="174.367" y="230.246" width="131.027" height="11.3616" fill="#D27202"/>
<rect x="184.88" y="147.05" width="110.009" height="121.638" rx="12.0484" fill="#FFC312"/>
<rect x="170.795" y="123.797" width="138.182" height="46.9542" rx="12.0484" fill="#D56605"/>
<path d="M130.061 211.218L108.646 183.79C106.628 181.706 101.832 178.326 103.476 173.358C105.119 168.39 105.126 169 105.789 167C106.111 166.279 107.246 165.037 109.209 165.836C111.171 166.634 116.045 165.669 120.139 167.624C120.885 168.032 119.672 160.29 120.937 161.167C130.241 167.624 129.418 177.07 129.122 177.708L153.533 200.387L180.614 155.982L201.622 175.047L175.584 219.064C171.54 228.449 152.454 236.58 141.218 224.563L130.061 211.218Z" fill="#FF8E8E"/>
<path d="M205.354 106.546C205.365 107.752 205.309 108.963 205.071 110.146C203.275 119.078 204.477 126.426 220.814 124.889C231.539 122.12 235.638 117.814 235.638 108.365C235.638 98.916 228.589 91.2559 219.894 91.2559C211.748 91.2559 205.272 97.6985 205.354 106.546Z" fill="#FF8E8E"/>
<rect x="216.836" y="109.397" width="18.802" height="25.3956" fill="#FF8E8E"/>
<path d="M192.557 228.87C195.434 212.27 212.539 202.237 228.432 207.826C241.065 212.269 248.595 225.236 246.191 238.41L223.974 360.196L223.967 435.477L171.941 435.477L171.948 347.782L192.557 228.87Z" fill="#372100"/>
<path d="M259.302 223.991C254.889 210.394 240.842 202.399 226.898 205.548C211.058 209.125 201.693 225.512 206.65 240.975L239.669 343.964L265.697 428.102L319.783 415.888L293.427 329.146L259.302 223.991Z" fill="#372100"/>
<path d="M266.255 229.485L272.057 213.028L292.016 218.312C290.581 224.545 287.109 237.491 284.705 239.411C281.7 241.812 284.217 247.876 283.846 251.17C283.55 253.805 280.86 254.958 277.61 254.257C277.063 254.292 275.118 254.079 271.715 252.947C268.311 251.816 266.584 249.811 266.146 248.95C262.654 244.444 264.763 234.096 266.255 229.485Z" fill="#FF8E8E"/>
<ellipse cx="211.93" cy="106.6" rx="1.24509" ry="1.57432" fill="#1F1F1F"/>
<ellipse cx="219.648" cy="106.6" rx="1.24509" ry="1.57432" fill="#1F1F1F"/>
<path d="M224.93 131.206C256.073 131.206 269.691 147.828 272.607 156.139L248.548 164.011L257.811 179.49L256.983 216.765L197.133 215.8V174.937L180.312 156.139C188.01 136.194 213.265 131.207 224.93 131.206Z" fill="white"/>
<path fill-rule="evenodd" clip-rule="evenodd" d="M252.92 173.365L275.076 193.501L268.224 224.139L288.021 232.883C288.021 232.883 299.228 210.929 302.434 195.293C303.571 189.748 301.834 183.651 297.794 179.263C282.712 162.884 267.508 148.113 267.508 148.113C266.012 147.161 264.555 145.906 262.933 144.507C262.246 143.915 261.529 143.297 260.766 142.666L249.824 154.36L252.92 173.365Z" fill="#FF8E8E"/>
<path d="M283.001 158.284C271.449 147.748 264.209 143.182 258.81 140.298C254.451 143.902 246.407 154.904 245.297 158.284C241.163 169.199 255.672 181.378 265.04 187.622L288.619 163.632L283.001 158.284Z" fill="white"/>
<path d="M177.2 156.662C181.65 148.253 189.713 142.322 193.188 140.407L195.135 141.38L203.063 176.067L195.135 191.619L167.101 177.772L177.2 156.662Z" fill="white"/>
<path d="M211.51 113.638C212.483 114.259 215.578 114.855 220.166 112.266" stroke="#1F1F1F" stroke-width="1.06823" stroke-linecap="round"/>
<mask id="mask0_2634_18820" style="mask-type:alpha" maskUnits="userSpaceOnUse" x="264" y="213" width="29" height="42">
<path d="M266.259 229.485L272.061 213.029L292.02 218.312C290.585 224.545 287.113 237.491 284.709 239.412C281.704 241.813 284.221 247.876 283.851 251.17C283.554 253.806 280.864 254.958 277.614 254.258C277.067 254.293 275.122 254.079 271.719 252.948C268.315 251.816 266.588 249.812 266.15 248.951C262.658 244.445 264.767 234.096 266.259 229.485Z" fill="#FF8E8E"/>
</mask>
<g mask="url(#mask0_2634_18820)">
<path d="M269.451 242.612C269.009 244.746 268.549 249.723 270.252 252.563" stroke="#E06262" stroke-width="1.06823" stroke-linecap="round"/>
<path d="M275.546 244.282C275.031 246.613 274.457 252.043 276.272 255.112" stroke="#E06262" stroke-width="1.06823" stroke-linecap="round"/>
</g>
<path d="M231.347 107.608C227.358 106.702 225.101 100.979 224.471 98.9643C223.249 102.235 216.719 104.121 213.606 103.922V100.802C211.836 103.988 208.024 106.345 206.807 106.419L205.584 105.36C205.653 106.419 205.437 107.926 205.201 108.89C202.279 107.606 198.37 101.574 205.924 93.4759C213.478 85.378 223.155 88.6428 226.176 91.1611C227.26 90.7586 230.294 90.2899 234.887 94.0971C239.48 97.9043 238.197 105.291 237.693 107.608L236.258 113.047V107.608H231.347Z" fill="#1F1F1F"/>
<ellipse cx="235.187" cy="109.401" rx="4.07946" ry="4.64065" fill="#FF8E8E"/>
<path d="M112.083 161.224C109.64 160.231 108.404 159.857 107.261 160.052C105.878 160.287 105.079 161.686 104.796 163.061L102.097 176.187C101.72 178.018 102.271 179.918 103.568 181.264L107.086 184.912C107.466 185.356 108.633 186.4 110.275 186.4C111.502 186.4 112.284 185.811 113.383 184.252C116.745 179.484 118.96 171.625 119.59 169.557C120.088 167.922 120.288 165.346 118.176 164.239C116.644 163.614 115.889 162.771 112.083 161.224Z" fill="#FF8E8E"/>
<path d="M264.785 143.607C262.37 141.282 255.721 137.08 250.976 135.896C240.596 154.283 248.901 179.1 257.637 187.535L258.029 182.55C251.988 158.257 259.752 146.606 264.785 143.607Z" fill="#D27202"/>
<path d="M199.834 136.643C188.526 143.485 194.465 177.365 197.261 187.911C194.175 184.758 192.408 182.387 189.488 176.392C183.38 160.142 186.247 150.006 187.535 144.236C193.624 139.404 196.573 138.024 199.834 136.643Z" fill="#D27202"/>
<mask id="mask1_2634_18820" style="mask-type:alpha" maskUnits="userSpaceOnUse" x="101" y="160" width="19" height="27">
<path d="M112.084 161.222C109.641 160.229 108.405 159.855 107.262 160.05C105.879 160.286 105.08 161.685 104.797 163.06L102.098 176.185C101.721 178.017 102.272 179.916 103.569 181.262L107.087 184.911C107.467 185.355 108.634 186.398 110.277 186.398C111.503 186.398 112.285 185.81 113.384 184.251C116.746 179.483 118.961 171.624 119.591 169.556C120.089 167.921 120.289 165.344 118.177 164.237C116.645 163.613 115.89 162.77 112.084 161.222Z" fill="#FF8E8E"/>
</mask>
<g mask="url(#mask1_2634_18820)">
<path d="M106.248 176.649C107.86 178.116 111.91 181.046 115.221 181.026" stroke="#E06262" stroke-width="1.06823" stroke-linecap="round"/>
<path d="M108.457 169.809C110.451 171.122 115.318 173.597 118.832 172.996" stroke="#E06262" stroke-width="1.06823" stroke-linecap="round"/>
</g>
<path d="M119.122 305.405V88.1943C119.122 86.6286 120.393 85.3594 121.958 85.3594C123.524 85.3594 124.795 86.6286 124.795 88.1943V305.405H119.122Z" fill="#4C2910"/>
<path d="M92.7782 144.606C93.4549 144.536 93.8185 144.091 93.9156 143.877L85.7194 109.823C73.6197 108.557 61.5354 102.408 57.0058 99.4912L65.3825 120.759L57.0058 133.51C70.1293 146.633 91.9322 144.694 92.7782 144.606Z" fill="url(#paint1_linear_2634_18820)"/>
<path d="M76.1592 135.236C74.9416 134.062 75.0767 133.259 75.2965 133.005L76.1592 131.279L93.9442 125.854L93.9148 143.877C93.7796 143.245 93.1562 142.78 92.8059 142.624C87.7643 140.651 77.3767 136.411 76.1592 135.236Z" fill="#AD3000"/>
<path d="M75.2715 98.8526C81.253 86.4773 114.781 88.2377 124.795 93.0369V126.224C122.907 125.585 120.503 127.458 119.118 128.924C96.8422 123.597 75.1736 130.534 75.1649 133.342L75.2715 98.8526Z" fill="#FF520F"/>
<path d="M119.122 91.1693C121.402 90.6518 122.652 90.7034 124.795 91.1693V128.922C122.54 128.254 121.344 128.306 119.122 128.922V91.1693Z" fill="url(#paint2_linear_2634_18820)"/>
<path d="M182.76 -6.4128C181.38 -8.84765 176.851 -14.7819 159.16 6.15809C145.238 22.6368 148.094 30.7143 150.693 31.5427L149.034 33.5067L153.833 37.5611C158.789 41.7478 170.729 35.7631 180.501 24.1962C190.273 12.6292 194.179 -0.142541 189.224 -4.32916L184.425 -8.38361L181.675 -5.1288L182.76 -6.4128Z" fill="#FEC019"/>
<path d="M158.444 5.54677C167.229 -4.85113 177.931 -10.2488 182.348 -6.51712C179.161 -7.78871 170.065 -7.03205 159.179 6.16736C148.292 19.3668 148.885 28.3086 150.542 31.1296C146.122 27.3948 149.66 15.9447 158.444 5.54677Z" fill="#F79B1F"/>
<path fill-rule="evenodd" clip-rule="evenodd" d="M182.88 21.2024C190.879 10.5017 193.758 -0.506424 189.226 -4.33501L184.427 -8.38946L185.15 -3.96508L184.584 -3.2944L186.006 -2.09302L182.304 9.30134L177.3 16.488L182.88 21.2024Z" fill="#FEC019"/>
<path d="M157.597 4.83219C147.825 16.3991 143.919 29.1709 148.875 33.3575C153.83 37.5442 165.77 31.5595 175.542 19.9926C185.314 8.4256 189.221 -4.34616 184.265 -8.53278C179.31 -12.7194 167.37 -6.73477 157.597 4.83219ZM174.382 19.012C165.597 29.4099 154.961 34.8629 150.54 31.1281C146.119 27.3934 149.665 15.9412 158.445 5.5484C167.225 -4.84435 177.928 -10.2502 182.349 -6.51548C186.769 -2.78072 183.17 8.61717 174.385 19.0151L174.382 19.012Z" fill="#FCDF51"/>
<path d="M102.311 51.6935C103.851 50.0436 107.321 45.1238 86.9323 36.5772C70.8873 29.8514 65.3634 34.0021 65.3546 36.202L63.4423 35.4004L61.4836 40.0732C59.461 44.8983 66.9529 52.6371 78.2154 57.3582C89.4779 62.0792 100.249 61.9958 102.271 57.1707L104.23 52.4979L101.061 51.1694L102.311 51.6935Z" fill="#FEC019"/>
<path d="M87.2278 35.879C97.352 40.1229 104.093 47.0512 102.29 51.352C102.498 48.5925 99.7158 41.7776 86.9279 36.5942C74.14 31.4108 67.4039 34.0294 65.6343 35.9866C67.4386 31.6823 77.1035 31.6351 87.2278 35.879Z" fill="#F79B1F"/>
<path fill-rule="evenodd" clip-rule="evenodd" d="M81.0933 58.4647C91.2606 62.0311 100.426 61.584 102.276 57.1715L104.235 52.4987L101.006 54.125L100.352 53.8511L99.7717 55.2361L90.1101 55.1439L83.3707 53.0317L81.0933 58.4647Z" fill="#FEC019"/>
<path d="M87.5742 35.0556C76.3117 30.3345 65.5409 30.4179 63.5183 35.243C61.4957 40.0682 68.9876 47.8069 80.2501 52.528C91.5127 57.249 102.283 57.1656 104.306 52.3405C106.329 47.5154 98.8368 39.7766 87.5742 35.0556ZM80.7239 51.3979C70.5996 47.154 63.832 40.2894 65.6362 35.9851C67.4405 31.6807 77.109 31.6392 87.2282 35.881C97.3474 40.1228 104.095 47.0497 102.291 51.354C100.486 55.6584 90.8466 55.6453 80.7224 51.4014L80.7239 51.3979Z" fill="#FCDF51"/>
<path d="M228.793 66.9908C230.223 65.4589 233.445 60.8909 214.514 52.9555C199.617 46.7107 194.488 50.5645 194.48 52.6072L192.704 51.8629L190.885 56.2015C189.007 60.6816 195.964 67.867 206.421 72.2504C216.878 76.6339 226.878 76.5564 228.756 72.0763L230.575 67.7377L227.633 66.5043L228.793 66.9908Z" fill="#FEC019"/>
<path d="M214.789 52.3072C224.189 56.2476 230.448 62.6805 228.774 66.6737C228.967 64.1115 226.384 57.784 214.51 52.9712C202.637 48.1585 196.382 50.5898 194.739 52.4071C196.415 48.4105 205.388 48.3667 214.789 52.3072Z" fill="#F79B1F"/>
<path fill-rule="evenodd" clip-rule="evenodd" d="M209.093 73.278C218.533 76.5893 227.043 76.1742 228.761 72.0772L230.579 67.7386L227.581 69.2486L226.975 68.9943L226.435 70.2803L217.465 70.1947L211.207 68.2334L209.093 73.278Z" fill="#FEC019"/>
<path d="M215.11 51.5429C204.653 47.1594 194.653 47.2369 192.775 51.717C190.897 56.197 197.853 63.3824 208.31 67.7659C218.767 72.1493 228.768 72.0719 230.646 67.5918C232.524 63.1117 225.567 55.9263 215.11 51.5429ZM208.75 66.7166C199.35 62.7762 193.066 56.4025 194.741 52.4059C196.416 48.4094 205.393 48.3708 214.789 52.3093C224.185 56.2478 230.45 62.6793 228.774 66.6759C227.099 70.6724 218.149 70.6603 208.748 66.7199L208.75 66.7166Z" fill="#FCDF51"/>
<path d="M146.175 76.4495C143.825 76.9286 137.79 79.048 150.17 99.0103C159.912 114.72 167.25 114.531 168.614 112.633L169.775 114.505L174.35 111.668C179.074 108.738 177.359 97.4233 170.521 86.3964C163.683 75.3695 154.309 68.8039 149.585 71.7336L145.01 74.5707L146.934 77.6736L146.175 76.4495Z" fill="#FEC019"/>
<path d="M149.483 99.432C143.336 89.5196 141.772 79.3688 145.982 76.7575C144.102 79.018 142.31 86.6306 150.183 98.9977C158.057 111.365 165.501 113.25 168.239 112.646C164.024 115.26 155.63 109.344 149.483 99.432Z" fill="#F79B1F"/>
<path fill-rule="evenodd" clip-rule="evenodd" d="M168.712 83.6653C162.11 74.3127 153.901 69.051 149.581 71.7302L145.006 74.5673L148.803 75.1498L149.2 75.7895L150.556 74.9486L158.861 80.9826L163.392 86.9641L168.712 83.6653Z" fill="#FEC019"/>
<path d="M148.676 99.9317C155.514 110.959 164.888 117.524 169.612 114.595C174.336 111.665 172.621 100.35 165.783 89.323C158.945 78.2961 149.571 71.7305 144.847 74.6602C140.123 77.5898 141.838 88.9049 148.676 99.9317ZM164.676 90.0092C170.824 99.9216 172.451 110.034 168.236 112.647C164.022 115.261 155.628 109.338 149.484 99.4306C143.34 89.5231 141.769 79.3695 145.983 76.7561C150.198 74.1426 158.533 80.0946 164.68 90.007L164.676 90.0092Z" fill="#FCDF51"/>
<path d="M41.131 81.4442C42.6171 81.1169 46.4259 79.7122 38.3727 67.1678C32.0352 57.2959 27.3802 57.4881 26.5339 58.7064L25.7786 57.5298L22.9036 59.3755C19.9349 61.2813 21.1353 68.4442 25.5838 75.3736C30.0323 82.303 36.0453 86.3763 39.014 84.4705L41.889 82.6248L40.6372 80.675L41.131 81.4442Z" fill="#FEC019"/>
<path d="M38.8039 66.8936C42.8028 73.1226 43.8961 79.5483 41.25 81.247C42.4207 79.794 43.4825 74.9456 38.3638 67.1761C33.2451 59.4066 28.5029 58.2842 26.7716 58.6942C29.4199 56.9941 34.805 60.6646 38.8039 66.8936Z" fill="#F79B1F"/>
<path fill-rule="evenodd" clip-rule="evenodd" d="M26.7585 77.0888C31.0405 82.9583 36.3015 86.216 39.0163 84.4731L41.8913 82.6274L39.4761 82.2954L39.2178 81.8931L38.3659 82.44L33.036 78.6934L30.1014 74.9427L26.7585 77.0888Z" fill="#FEC019"/>
<path d="M39.3114 66.5685C34.8629 59.6391 28.8499 55.5658 25.8812 57.4716C22.9125 59.3775 24.1129 66.5404 28.5614 73.4698C33.0098 80.3991 39.0229 84.4725 41.9916 82.5666C44.9603 80.6608 43.7599 73.4979 39.3114 66.5685ZM29.2567 73.0234C25.2578 66.7944 24.1252 60.3939 26.7735 58.6938C29.4218 56.9936 34.8067 60.6686 38.8036 66.8945C42.8005 73.1205 43.898 79.5478 41.2497 81.248C38.6014 82.9481 33.2534 79.2538 29.2545 73.0248L29.2567 73.0234Z" fill="#FCDF51"/>
<path d="M158.086 263.356C156.906 262.146 153.349 259.377 146.238 274.324C140.641 286.087 143.55 290.364 145.195 290.449L144.528 291.85L147.954 293.48C151.491 295.163 157.543 289.834 161.472 281.577C165.4 273.321 165.718 265.262 162.181 263.579L158.755 261.949L157.65 264.273L158.086 263.356Z" fill="#FEC019"/>
<path d="M145.726 274.078C149.257 266.656 154.677 261.859 157.83 263.36C155.773 263.107 150.578 264.947 146.25 274.328C141.922 283.709 143.643 288.839 145.044 290.232C141.888 288.73 142.194 281.5 145.726 274.078Z" fill="#F79B1F"/>
<path fill-rule="evenodd" clip-rule="evenodd" d="M162.401 279.464C165.427 271.986 165.416 265.115 162.182 263.576L158.756 261.946L159.858 264.418L159.63 264.897L160.646 265.38L160.236 272.603L158.418 277.569L162.401 279.464Z" fill="#FEC019"/>
<path d="M145.122 273.79C141.193 282.047 140.875 290.105 144.413 291.788C147.95 293.471 154.002 288.141 157.931 279.885C161.859 271.628 162.177 263.57 158.64 261.887C155.103 260.204 149.05 265.534 145.122 273.79ZM157.102 279.491C153.571 286.913 148.198 291.732 145.042 290.23C141.887 288.729 142.197 281.496 145.727 274.078C149.257 266.66 154.675 261.858 157.831 263.36C160.986 264.861 160.636 272.07 157.105 279.492L157.102 279.491Z" fill="#FCDF51"/>
<path d="M97.6397 232.056C97.6032 230.366 96.8931 225.915 81.4943 231.986C69.3761 236.764 68.5831 241.876 69.7279 243.06L68.2837 243.63L69.6751 247.159C71.1119 250.803 79.1731 251.038 87.6792 247.684C96.1853 244.331 101.917 238.658 100.48 235.013L99.089 231.484L96.6955 232.428L97.6397 232.056Z" fill="#FEC019"/>
<path d="M81.2879 231.457C88.9343 228.443 96.1693 228.635 97.45 231.883C96.1193 230.295 91.0665 228.095 81.5009 231.998C71.9352 235.9 69.6915 240.825 69.7653 242.799C68.4836 239.548 73.6415 234.472 81.2879 231.457Z" fill="#F79B1F"/>
<path fill-rule="evenodd" clip-rule="evenodd" d="M89.8006 246.773C97.1161 243.373 101.797 238.343 100.483 235.011L99.0919 231.482L98.2102 234.041L97.7167 234.236L98.1291 235.282L92.9002 240.281L88.1827 242.67L89.8006 246.773Z" fill="#FEC019"/>
<path d="M81.043 230.834C72.5369 234.188 66.805 239.861 68.2418 243.505C69.6786 247.15 77.7398 247.384 86.2459 244.031C94.752 240.677 100.484 235.004 99.0471 231.36C97.6103 227.715 89.5492 227.481 81.043 230.834ZM85.9094 243.177C78.263 246.192 71.047 246.047 69.7652 242.796C68.4835 239.546 73.6462 234.471 81.2888 231.458C88.9315 228.445 96.1692 228.633 97.4509 231.884C98.7327 235.135 93.5569 240.165 85.9105 243.18L85.9094 243.177Z" fill="#FCDF51"/>
<path d="M51.4401 181.164C52.9234 180.355 56.5498 177.677 44.0773 166.795C34.2621 158.231 29.3578 159.878 28.8327 161.439L27.6629 160.418L25.1689 163.277C22.5935 166.228 26.092 173.495 32.9816 179.506C39.8712 185.517 47.5446 187.998 50.12 185.047L52.614 182.188L50.6753 180.497L51.4401 181.164Z" fill="#FEC019"/>
<path d="M44.4519 166.368C50.6452 171.772 53.8012 178.285 51.5057 180.916C52.3041 179.004 51.9347 173.505 44.0702 166.806C36.2057 160.106 30.8013 160.378 29.0822 161.352C31.3796 158.718 38.2586 160.965 44.4519 166.368Z" fill="#F79B1F"/>
<path fill-rule="evenodd" clip-rule="evenodd" d="M34.7657 180.971C41.1494 185.903 47.7681 187.747 50.1232 185.048L52.6172 182.19L49.939 182.583L49.5393 182.235L48.8001 183.082L41.9563 180.738L37.6655 177.647L34.7657 180.971Z" fill="#FEC019"/>
<path d="M44.8925 165.864C38.0029 159.853 30.3294 157.372 27.7541 160.324C25.1788 163.275 28.6772 170.542 35.5668 176.553C42.4565 182.564 50.1299 185.045 52.7052 182.094C55.2805 179.142 51.7821 171.876 44.8925 165.864ZM36.17 175.862C29.9767 170.458 26.7867 163.984 29.0841 161.351C31.3815 158.717 38.2617 160.968 44.4519 166.369C50.6421 171.77 53.8031 178.284 51.5057 180.917C49.2083 183.55 42.3614 181.267 36.1681 175.864L36.17 175.862Z" fill="#FCDF51"/>
</g>
<defs>
<linearGradient id="paint0_linear_2634_18820" x1="151" y1="-33" x2="151" y2="282.5" gradientUnits="userSpaceOnUse">
<stop stop-color="#C9F7FF"/>
<stop offset="1" stop-color="white"/>
</linearGradient>
<linearGradient id="paint1_linear_2634_18820" x1="57.0058" y1="122.123" x2="93.9156" y2="122.123" gradientUnits="userSpaceOnUse">
<stop stop-color="#FF520F"/>
<stop offset="1" stop-color="#D33B00"/>
</linearGradient>
<linearGradient id="paint2_linear_2634_18820" x1="124.795" y1="109.861" x2="119.122" y2="109.861" gradientUnits="userSpaceOnUse">
<stop stop-color="#FF520F"/>
<stop offset="1" stop-color="#ED4200"/>
</linearGradient>
<clipPath id="clip0_2634_18820">
<rect x="0.5" width="300" height="300" rx="150" fill="white"/>
</clipPath>
</defs>
</svg>
