<svg width="301" height="300" viewBox="0 0 301 300" fill="none" xmlns="http://www.w3.org/2000/svg">
<g clip-path="url(#clip0_2634_18636)">
<path d="M0.5 150C0.5 67.1573 67.6573 0 150.5 0C233.343 0 300.5 67.1573 300.5 150C300.5 232.843 233.343 300 150.5 300C67.6573 300 0.5 232.843 0.5 150Z" fill="url(#paint0_linear_2634_18636)"/>
<path d="M59.1028 375.832C43.3845 369.384 36.4231 376.295 27.8756 380.87C13.6712 388.472 -32.5244 378.981 -41.8781 337.209C-41.8781 335.451 -42.758 292.938 -41.882 271.551L22.7117 342.042L27.8756 327.477L74.217 310.854L196.622 284.661L356.807 276C357.646 285.907 359.527 308.239 360.333 318.313C361.34 330.907 319.027 348.632 304.923 352.662C290.819 356.692 239.439 351.15 226.846 361.728C214.252 372.306 181.51 375.832 171.94 375.832C162.369 375.832 156.828 383.388 141.212 387.418C125.597 391.448 105.952 389.433 94.366 383.388C82.7804 377.344 78.7506 383.891 59.1028 375.832Z" fill="#FAB36F"/>
<mask id="mask0_2634_18636" style="mask-type:alpha" maskUnits="userSpaceOnUse" x="-43" y="276" width="403" height="114">
<path d="M58.4398 375.832C42.7215 369.385 35.6794 376.717 27.9086 380.941C15.245 387.823 -32.557 380.941 -41.7963 336.512L-42.2704 279.301L22.6779 342.637V348.634L27.2126 327.478L73.554 310.855L195.959 284.661L356.143 276C356.983 285.907 358.864 308.239 359.669 318.314C360.677 330.907 318.364 348.632 304.26 352.662C290.156 356.692 238.776 351.15 226.183 361.729C213.589 372.307 180.847 375.832 171.277 375.832C161.706 375.832 156.165 383.389 140.549 387.419C124.934 391.448 105.289 389.433 93.703 383.389C82.1173 377.344 78.0876 383.891 58.4398 375.832Z" fill="#FAB36F"/>
</mask>
<g mask="url(#mask0_2634_18636)">
<rect x="227.143" y="279.569" width="141.268" height="106.378" fill="#EDA663"/>
</g>
<path d="M47.0594 332.395C32.2026 331.293 31.9795 337.559 27.1147 343.402C4.73315 370.282 -44.1259 317.693 -42.0718 271.269C-39.5041 213.24 -10.5541 211.74 -16.8681 192.059C-24.7764 167.408 -50.9925 145.034 -4.73441 112.691C35.0438 91.3889 34.1911 91.6167 84.8893 85.4713C152.984 77.2171 160.55 90.9738 221.078 100.603C281.607 110.233 298.115 138.432 302.929 146.685C306.781 153.289 307.744 172.822 307.744 181.763C327.691 211.111 364.971 273.106 354.516 286.313C341.447 302.82 238.274 326.207 221.078 322.08C203.883 317.953 161.926 332.395 135.1 343.402C108.275 354.408 65.6303 333.773 47.0594 332.395Z" fill="#96ECAA"/>
<path d="M167.331 225.155C226.823 216.203 218.163 136.306 202.37 97.2578L213.099 99.2371C232.539 135.485 237.756 160.66 239.072 194.882C240.388 229.105 211.431 268.593 125.874 263.986C57.4285 260.3 10.894 323.659 2.77709 348.449C-13.0139 344.19 -35.4537 318.425 -41.6904 285.943C-9.44207 223.42 92.9664 236.345 167.331 225.155Z" fill="#52A2F8"/>
<rect x="53.0084" y="294.724" width="3.97097" height="12.5601" rx="1.98548" fill="#57C874"/>
<rect x="60.2828" y="290.264" width="3.97097" height="17.0211" rx="1.98548" fill="#57C874"/>
<rect x="67.5651" y="293.057" width="3.97097" height="14.2266" rx="1.98548" fill="#57C874"/>
<rect x="274.675" y="139.235" width="2.72783" height="8.62808" rx="1.36391" fill="#57C874"/>
<rect x="279.674" y="136.17" width="2.72783" height="11.6926" rx="1.36391" fill="#57C874"/>
<rect x="284.673" y="138.088" width="2.72783" height="9.77287" rx="1.36391" fill="#57C874"/>
<rect x="189.941" y="96.0977" width="2.72783" height="8.62808" rx="1.36391" fill="#57C874"/>
<rect x="194.94" y="93.0332" width="2.72783" height="11.6926" rx="1.36391" fill="#57C874"/>
<rect x="199.939" y="94.9512" width="2.72783" height="9.77287" rx="1.36391" fill="#57C874"/>
<rect x="144.372" y="155.701" width="2.72783" height="8.62808" rx="1.36391" fill="#57C874"/>
<rect x="149.372" y="152.637" width="2.72783" height="11.6926" rx="1.36391" fill="#57C874"/>
<rect x="154.37" y="154.554" width="2.72783" height="9.77287" rx="1.36391" fill="#57C874"/>
<g clip-path="url(#clip1_2634_18636)">
<path d="M149.497 92.1332C149.488 95.2155 149.47 98.2977 149.468 101.38C149.465 106.48 149.472 111.579 149.477 116.679H145.148C145.153 113.341 145.16 110.006 145.162 106.668C145.164 103.649 145.162 100.629 145.162 97.6105C145.162 97.3685 145.243 97.0397 144.963 96.9484C144.682 96.8548 144.485 97.1105 144.331 97.3388C144.306 97.3753 144.279 97.4141 144.251 97.4484C141.452 100.823 137.81 102.065 133.552 101.741C132.342 101.649 131.194 101.279 130.057 100.889C130.03 100.976 130.016 100.999 130.016 101.019C130.012 106.241 130.005 111.462 130 116.681H125.672V100.855C124.458 101.309 123.271 101.633 122.039 101.757C117.129 102.245 111.856 99.7543 110.078 95.0693C108.751 91.5716 109.491 88.4186 111.915 85.656C112.313 85.2016 112.402 84.9711 112.019 84.4528C109.36 80.8477 110.393 75.7769 114.273 73.2084C114.952 72.7586 115.654 72.3271 116.436 72.1125C117.126 71.9252 117.457 71.4481 117.733 70.8659C119.453 67.2494 122.422 65.4366 126.252 64.8612C128.329 64.5484 130.333 64.8452 132.286 65.5804C132.286 65.7585 132.17 65.8658 132.064 65.9845C129.511 68.875 129.289 72.7198 131.55 75.8431C131.883 76.302 131.785 76.4892 131.461 76.8317C129.905 78.4892 128.995 80.4641 128.927 82.7496C128.829 86.0281 130.234 88.6195 132.782 90.5853C134.546 91.946 136.544 92.7291 138.777 92.9871C140.718 93.2109 142.575 92.9871 144.419 92.4095C144.933 92.2474 145.182 92.0008 145.16 91.3935C145.108 90.0099 145.126 88.6241 145.153 87.2382C145.162 86.761 145.044 86.3683 144.779 85.9733C143.592 84.2108 142.446 82.4185 141.244 80.6651C140.883 80.1399 140.949 79.8591 141.475 79.5418C142.188 79.1125 142.868 78.6239 143.556 78.1513C143.93 77.8956 144.161 77.9367 144.414 78.3614C145.268 79.7998 146.179 81.2039 147.049 82.6354C147.257 82.9779 147.345 83.0098 147.57 82.6423C148.414 81.2495 149.325 79.8979 150.133 78.4847C150.473 77.8888 150.745 77.9025 151.225 78.2609C151.841 78.7176 152.473 79.1582 153.139 79.5326C153.751 79.8751 153.692 80.1947 153.338 80.7107C152.138 82.4665 150.981 84.2496 149.812 86.0259C149.642 86.2861 149.461 86.5327 149.465 86.8866C149.488 88.6355 149.486 90.3844 149.492 92.1332H149.497Z" fill="#6A9C72"/>
<path d="M149.491 92.1318C149.485 90.3829 149.487 88.6341 149.464 86.8852C149.46 86.529 149.641 86.2824 149.811 86.0245C150.979 84.2482 152.137 82.465 153.337 80.7093C153.691 80.1933 153.747 79.8737 153.138 79.5312C152.472 79.1568 151.838 78.7161 151.224 78.2595C150.742 77.9011 150.472 77.8874 150.132 78.4833C149.324 79.8965 148.413 81.2481 147.568 82.6408C147.346 83.0084 147.256 82.9765 147.047 82.634C146.18 81.2025 145.27 79.7983 144.413 78.36C144.16 77.933 143.929 77.8919 143.555 78.1499C142.866 78.6225 142.187 79.1111 141.473 79.5404C140.948 79.8554 140.88 80.1385 141.242 80.6637C142.445 82.4171 143.591 84.2094 144.778 85.9719C145.043 86.3669 145.161 86.7596 145.152 87.2368C145.127 88.6227 145.106 90.0085 145.159 91.3921C145.181 91.9994 144.932 92.246 144.418 92.4081C142.574 92.988 140.717 93.2095 138.776 92.9857C136.543 92.7277 134.545 91.9446 132.781 90.5839C130.233 88.6204 128.828 86.0267 128.926 82.7482C128.994 80.4627 129.904 78.4878 131.46 76.8303C131.784 76.4855 131.879 76.3006 131.548 75.8417C129.286 72.7161 129.51 68.8736 132.063 65.9831C132.169 65.8644 132.287 65.7548 132.285 65.579C132.744 65.4511 132.989 65.031 133.347 64.7639C134.264 64.0835 135.254 63.5607 136.341 63.2342C136.697 63.1269 136.896 62.9534 137.036 62.5927C138.45 58.999 141.227 57.0698 144.851 56.2866C147.949 55.6177 150.887 56.1314 153.607 57.8095C155.414 58.9237 156.732 60.4648 157.516 62.4465C157.681 62.8689 157.903 63.0949 158.327 63.2411C161.088 64.2 163.183 65.9146 164.177 68.7594C165.047 71.2526 164.633 73.5974 163.113 75.7252C162.771 76.2024 162.773 76.4558 163.188 76.8874C166.392 80.2253 166.546 85.6158 163.453 89.0176C159.899 92.9264 155.496 93.8716 150.513 92.4789C150.166 92.383 149.829 92.2505 149.489 92.1341L149.491 92.1318Z" fill="#6EDE88"/>
</g>
<path d="M108.507 101.817C107.872 100.28 106.449 99.4811 105.008 99.4212C103.465 99.3414 101.904 100.1 101.166 101.698L83.5008 140.355L90.1897 150L105.008 137.959L113.841 143.47L123.12 137.4L108.524 101.817H108.507Z" fill="#E0FFE8"/>
<path d="M123.107 137.568L113.828 143.639L104.996 138.127L90.1772 150.148L83.4883 140.504L51.4673 210.61H104.996H153.087L123.107 137.568Z" fill="#1BA03D"/>
<path d="M55.4492 82.8875C54.6946 81.068 53.0138 80.1336 51.2987 80.0517C49.4807 79.9697 47.6112 80.8385 46.7536 82.7236L25.8294 128.178L33.736 139.521L51.2987 125.375L61.7608 131.85L72.7546 124.72L55.4664 82.8875H55.4492Z" fill="#E0FFE8"/>
<path d="M67.4625 111.973L60.2532 119.152L51.2996 112.657L37.5107 124.721L33.2816 111.973L-12.1078 210.614H51.2996H108.258L67.4625 111.973Z" fill="#29CB53"/>
<g clip-path="url(#clip2_2634_18636)">
<path d="M266.435 115.832C266.427 118.578 266.411 121.324 266.408 124.07C266.406 128.614 266.413 133.156 266.417 137.7H262.513C262.517 134.726 262.523 131.754 262.525 128.781C262.527 126.091 262.525 123.4 262.525 120.711C262.525 120.496 262.598 120.203 262.345 120.121C262.092 120.038 261.914 120.266 261.775 120.469C261.753 120.502 261.728 120.536 261.704 120.567C259.179 123.573 255.894 124.68 252.053 124.391C250.962 124.31 249.926 123.98 248.901 123.632C248.876 123.71 248.864 123.73 248.864 123.748C248.86 128.4 248.854 133.052 248.85 137.702H244.946V123.602C243.851 124.007 242.78 124.295 241.669 124.405C237.24 124.841 232.484 122.621 230.881 118.447C229.683 115.331 230.351 112.522 232.537 110.061C232.897 109.656 232.977 109.451 232.631 108.989C230.233 105.777 231.164 101.26 234.664 98.9713C235.277 98.5706 235.91 98.1862 236.615 97.995C237.238 97.8282 237.536 97.403 237.785 96.8844C239.336 93.6624 242.014 92.0474 245.469 91.5348C247.342 91.2561 249.15 91.5205 250.911 92.1755C250.911 92.3342 250.807 92.4298 250.711 92.5355C248.409 95.1107 248.208 98.536 250.247 101.319C250.547 101.727 250.46 101.894 250.167 102.199C248.764 103.676 247.943 105.436 247.881 107.472C247.794 110.393 249.06 112.701 251.358 114.453C252.95 115.665 254.752 116.363 256.766 116.592C258.517 116.792 260.192 116.592 261.855 116.078C262.319 115.933 262.543 115.714 262.523 115.173C262.476 113.94 262.492 112.705 262.517 111.471C262.525 111.046 262.419 110.696 262.18 110.344C261.109 108.773 260.075 107.177 258.991 105.615C258.666 105.147 258.725 104.897 259.199 104.614C259.843 104.231 260.455 103.796 261.077 103.375C261.414 103.147 261.622 103.184 261.851 103.562C262.621 104.844 263.442 106.095 264.227 107.37C264.415 107.675 264.494 107.704 264.697 107.376C265.459 106.135 266.28 104.931 267.009 103.672C267.316 103.141 267.561 103.153 267.994 103.473C268.549 103.88 269.119 104.272 269.72 104.606C270.272 104.911 270.218 105.196 269.9 105.655C268.817 107.219 267.773 108.808 266.719 110.391C266.566 110.622 266.402 110.842 266.406 111.157C266.427 112.715 266.425 114.274 266.431 115.832H266.435Z" fill="#6A9C72"/>
<path d="M266.429 115.83C266.422 114.272 266.424 112.713 266.404 111.155C266.4 110.838 266.563 110.618 266.717 110.388C267.771 108.806 268.815 107.217 269.897 105.653C270.216 105.193 270.267 104.909 269.718 104.604C269.117 104.27 268.545 103.877 267.991 103.471C267.556 103.151 267.313 103.139 267.007 103.67C266.277 104.929 265.456 106.133 264.694 107.374C264.494 107.701 264.412 107.673 264.224 107.368C263.442 106.093 262.621 104.842 261.848 103.56C261.62 103.18 261.411 103.143 261.074 103.373C260.453 103.794 259.84 104.229 259.197 104.612C258.723 104.892 258.661 105.145 258.988 105.612C260.073 107.175 261.107 108.771 262.177 110.342C262.416 110.694 262.523 111.043 262.514 111.469C262.492 112.703 262.474 113.938 262.521 115.171C262.541 115.712 262.316 115.931 261.852 116.076C260.19 116.592 258.514 116.79 256.764 116.59C254.749 116.36 252.948 115.663 251.356 114.451C249.058 112.701 247.791 110.391 247.879 107.47C247.94 105.434 248.762 103.674 250.165 102.197C250.457 101.89 250.543 101.725 250.245 101.317C248.204 98.5319 248.406 95.1086 250.708 92.5335C250.805 92.4277 250.911 92.3301 250.909 92.1734C251.323 92.0595 251.544 91.6853 251.867 91.4473C252.694 90.8411 253.587 90.3753 254.568 90.0845C254.888 89.9889 255.068 89.8343 255.195 89.5129C256.469 86.3113 258.974 84.5925 262.243 83.8948C265.037 83.2988 267.687 83.7565 270.14 85.2515C271.771 86.2441 272.96 87.6171 273.667 89.3827C273.816 89.759 274.016 89.9604 274.398 90.0906C276.888 90.9449 278.778 92.4724 279.675 95.0069C280.459 97.2281 280.085 99.3171 278.715 101.213C278.406 101.638 278.408 101.864 278.782 102.248C281.673 105.222 281.812 110.024 279.021 113.055C275.816 116.537 271.844 117.38 267.35 116.139C267.037 116.053 266.733 115.935 266.427 115.832L266.429 115.83Z" fill="#6EDE88"/>
</g>
<rect x="-0.0354004" y="196.383" width="3.97097" height="14.2266" rx="1.98548" fill="#57C874"/>
<path d="M244.756 249.762L235.401 216.693C233.572 212.313 224.792 192.846 230.106 186.237C235.42 179.627 240.74 173.079 242.882 170.419C243.779 169.51 246.193 168.287 248.675 170.672C251.158 173.057 244.972 176.924 249.986 182.34C239.937 182.34 261.602 184.041 262.844 186.237C267.309 194.126 270.146 209.12 269.337 209.917L292.363 254.158L351.25 229.082L364.137 257.819L309.073 291.649C291.697 300.205 262.181 310.142 251.996 277.936L244.756 249.762Z" fill="#FF8E8E"/>
<path d="M255.88 188.183L172.645 194.984C169.052 193.815 166.767 184.091 167.148 164.572C167.529 145.053 182.058 134.733 187.742 134.029L257.67 155.323C252.92 155.298 247.005 161.327 247.943 173.181C248.694 182.665 252.099 185.99 255.88 188.183Z" fill="#FFB338"/>
<ellipse cx="256.379" cy="171.651" rx="9.67193" ry="16.5586" transform="rotate(3.11766 256.379 171.651)" fill="#D27E0F"/>
<path d="M253.247 172.637C252.904 166.583 255.754 162.594 257.222 161.356L270.082 162.057C267.341 161.907 264.954 165.219 264.087 171.324C263.393 176.208 267.698 180.523 268.72 181.849L256.262 181.17C255.434 180.954 253.591 178.692 253.247 172.637Z" fill="#FFB338"/>
<ellipse cx="269.204" cy="171.942" rx="5.22364" ry="9.9174" transform="rotate(3.11766 269.204 171.942)" fill="#D27E0F"/>
<ellipse cx="269.893" cy="171.982" rx="2.28734" ry="5.64389" transform="rotate(3.11766 269.893 171.982)" fill="#00103C"/>
<path d="M246.436 207.515L157.362 220.22C153.432 219.128 142.76 211.993 142.027 190.092C141.293 168.19 155.875 159.919 161.945 158.784L246.436 170.574C241.329 170.836 235.323 177.954 237.026 191.184C238.389 201.768 242.244 205.288 246.436 207.515Z" fill="#FFB338"/>
<ellipse cx="246.009" cy="188.954" rx="10.412" ry="18.5878" fill="#D27E0F"/>
<path d="M242.7 190.253C241.977 183.488 244.807 178.842 246.312 177.365H260.177C257.221 177.365 254.85 181.223 254.275 188.119C253.815 193.635 258.695 198.21 259.871 199.633H246.441C245.538 199.441 243.424 197.018 242.7 190.253Z" fill="#FFB338"/>
<ellipse cx="259.811" cy="188.498" rx="5.62336" ry="11.1328" fill="#D27E0F"/>
<ellipse cx="260.548" cy="188.498" rx="2.46238" ry="6.33554" fill="#00103C"/>
<path d="M246.792 170.417L167.591 159.655C167.869 157.233 168.917 153.526 169.795 151.451L247.859 164.555L253.264 171.844L263.989 173.032C264.221 181.026 267.753 181.598 268.444 181.855L264.221 181.598C262.86 178.223 261.217 177.381 259.6 177.381L254.165 177.319C251.834 172.994 248.708 170.938 246.792 170.417Z" fill="black" fill-opacity="0.15"/>
<path d="M363.855 212.812C425.007 196.973 473.61 256.841 483.588 269.936L579.621 432.477L540.958 432.477L477.884 432.477L394.414 432.477L369.912 392.567L321.376 308.736L288.923 284.462C293.896 241.384 340.949 218.746 363.855 212.812Z" fill="#60B0FF"/>
<path d="M177.438 284.883L169.921 240.585C168.283 234.679 160.168 208.325 168.041 200.712C175.913 193.099 183.783 185.566 186.955 182.503C188.25 181.483 191.54 180.305 194.337 183.76C197.133 187.215 208.938 203.57 214.49 211.316C215.45 212.824 227.745 208.071 227.465 211.316C226.091 227.232 215.656 236.476 214.49 237.367L229.614 288.414L322.586 232.79L328.236 313.999L252.243 348.477C228.603 356.642 189.189 364.621 181.324 321.72L177.438 284.883Z" fill="#FF8E8E"/>
<mask id="mask1_2634_18636" style="mask-type:alpha" maskUnits="userSpaceOnUse" x="164" y="181" width="165" height="174">
<path d="M177.438 284.884L169.921 240.586C168.283 234.68 160.168 208.326 168.041 200.713C175.913 193.1 183.783 185.567 186.955 182.504C188.25 181.484 191.54 180.306 194.337 183.761C197.133 187.216 208.938 203.571 214.491 211.317C215.45 212.825 227.745 208.072 227.465 211.317C226.091 227.233 215.656 236.477 214.491 237.368L229.614 288.415L322.586 232.791L328.236 314L252.243 348.478C228.603 356.643 189.189 364.622 181.324 321.721L177.438 284.884Z" fill="#FF8E8E"/>
</mask>
<g mask="url(#mask1_2634_18636)">
<path d="M169.327 189.139C169.535 194.15 171.221 205.365 176.303 210.134" stroke="#E06262" stroke-width="2.91708" stroke-linecap="round"/>
<path d="M180.99 181.926C181.198 186.937 182.884 198.152 187.966 202.921" stroke="#E06262" stroke-width="2.91708" stroke-linecap="round"/>
</g>
<path d="M257.002 271.882L332.27 226.52H342.907L333.674 315.239L290.921 336.515L257.002 271.882Z" fill="#60B0FF"/>
<g filter="url(#filter0_d_2634_18636)">
<path d="M132 86.0089C132 102.645 118.469 114.116 103.754 128.536C101.397 130.846 97.602 130.844 95.2476 128.533C80.0529 113.615 67 102.699 67 86.0089C67 67.7783 81.5507 52.9995 99.5 52.9995C117.449 52.9995 132 67.7783 132 86.0089Z" fill="white"/>
</g>
<circle cx="99.4999" cy="85.4981" r="26.5909" fill="#5D4E3C"/>
<path d="M84.6153 83.5488L94.1013 80.0994L97.5508 70.6133C98.2128 68.7929 100.787 68.793 101.449 70.6133L104.899 80.0994L114.385 83.5488C116.205 84.2108 116.205 86.7853 114.385 87.4473L104.899 90.8967L101.449 100.383C100.787 102.203 98.2128 102.203 97.5508 100.383L94.1013 90.8967L84.6153 87.4473C82.7949 86.7853 82.7949 84.2108 84.6153 83.5488Z" fill="#FFEE56"/>
<path d="M123.966 32.1206L130.679 29.6794L133.121 22.9662C133.589 21.6779 135.411 21.678 135.88 22.9662L138.321 29.6794L145.034 32.1206C146.322 32.589 146.322 34.411 145.034 34.8794L138.321 37.3206L135.88 44.0338C135.411 45.3221 133.589 45.322 133.121 44.0338L130.679 37.3206L123.966 34.8794C122.678 34.411 122.678 32.589 123.966 32.1206Z" fill="white"/>
<path d="M52.6721 58.0404L57.3422 56.3422L59.0404 51.6721C59.3663 50.7759 60.6337 50.776 60.9597 51.6721L62.6577 56.3422L67.3278 58.0404C68.2241 58.3663 68.2241 59.6337 67.3278 59.9596L62.6577 61.6578L60.9597 66.3279C60.6337 67.2241 59.3663 67.224 59.0404 66.3279L57.3422 61.6578L52.6721 59.9596C51.776 59.6337 51.776 58.3663 52.6721 58.0404Z" fill="white"/>
<g filter="url(#filter1_d_2634_18636)">
<path d="M227.37 58.4389C227.37 66.7236 220.632 72.4361 213.304 79.6177C212.13 80.7678 210.24 80.7671 209.067 79.6159C201.5 72.1867 195 66.7508 195 58.4389C195 49.3599 202.246 42 211.185 42C220.124 42 227.37 49.3599 227.37 58.4389Z" fill="white"/>
</g>
<circle cx="211.185" cy="58.1853" r="13.2424" fill="#6E6458"/>
<path d="M203.773 57.2146L208.497 55.4968L210.214 50.7727C210.544 49.8661 211.826 49.8661 212.156 50.7727L213.874 55.4968L218.598 57.2146C219.504 57.5443 219.504 58.8264 218.598 59.1561L213.874 60.8739L212.156 65.598C211.826 66.5046 210.544 66.5046 210.214 65.598L208.497 60.8739L203.773 59.1561C202.866 58.8264 202.866 57.5443 203.773 57.2146Z" fill="#FFF599"/>
</g>
<defs>
<filter id="filter0_d_2634_18636" x="67" y="52.9995" width="65" height="81.2276" filterUnits="userSpaceOnUse" color-interpolation-filters="sRGB">
<feFlood flood-opacity="0" result="BackgroundImageFix"/>
<feColorMatrix in="SourceAlpha" type="matrix" values="0 0 0 0 0 0 0 0 0 0 0 0 0 0 0 0 0 0 127 0" result="hardAlpha"/>
<feOffset dy="3.96"/>
<feComposite in2="hardAlpha" operator="out"/>
<feColorMatrix type="matrix" values="0 0 0 0 0.399987 0 0 0 0 0.597461 0 0 0 0 0.431583 0 0 0 1 0"/>
<feBlend mode="normal" in2="BackgroundImageFix" result="effect1_dropShadow_2634_18636"/>
<feBlend mode="normal" in="SourceGraphic" in2="effect1_dropShadow_2634_18636" result="shape"/>
</filter>
<filter id="filter1_d_2634_18636" x="195" y="42" width="32.3704" height="40.95" filterUnits="userSpaceOnUse" color-interpolation-filters="sRGB">
<feFlood flood-opacity="0" result="BackgroundImageFix"/>
<feColorMatrix in="SourceAlpha" type="matrix" values="0 0 0 0 0 0 0 0 0 0 0 0 0 0 0 0 0 0 127 0" result="hardAlpha"/>
<feOffset dy="2.47"/>
<feComposite in2="hardAlpha" operator="out"/>
<feColorMatrix type="matrix" values="0 0 0 0 0.399987 0 0 0 0 0.597461 0 0 0 0 0.431583 0 0 0 0.4 0"/>
<feBlend mode="normal" in2="BackgroundImageFix" result="effect1_dropShadow_2634_18636"/>
<feBlend mode="normal" in="SourceGraphic" in2="effect1_dropShadow_2634_18636" result="shape"/>
</filter>
<linearGradient id="paint0_linear_2634_18636" x1="151" y1="-33" x2="151" y2="282.5" gradientUnits="userSpaceOnUse">
<stop stop-color="#C9F7FF"/>
<stop offset="1" stop-color="white"/>
</linearGradient>
<clipPath id="clip0_2634_18636">
<path d="M0.5 150C0.5 67.1573 67.6573 0 150.5 0C233.343 0 300.5 67.1573 300.5 150C300.5 232.843 233.343 300 150.5 300C67.6573 300 0.5 232.843 0.5 150Z" fill="white"/>
</clipPath>
<clipPath id="clip1_2634_18636">
<rect width="56.2658" height="60.6788" fill="white" transform="translate(109.426 56)"/>
</clipPath>
<clipPath id="clip2_2634_18636">
<rect width="50.7495" height="54.0593" fill="white" transform="translate(230.297 83.6348)"/>
</clipPath>
</defs>
</svg>
