<svg width="301" height="300" viewBox="0 0 301 300" fill="none" xmlns="http://www.w3.org/2000/svg">
<g clip-path="url(#clip0_2634_18722)">
<path d="M0.5 150C0.5 67.1573 67.6573 0 150.5 0C233.343 0 300.5 67.1573 300.5 150C300.5 232.843 233.343 300 150.5 300C67.6573 300 0.5 232.843 0.5 150Z" fill="url(#paint0_linear_2634_18722)"/>
<path d="M76.2758 455.582C61.4191 454.48 61.1959 460.746 56.3311 466.589C33.9496 493.469 -14.9095 440.88 -12.8554 394.456C-10.2877 336.427 18.6623 334.927 12.3483 315.246C4.44 290.595 -21.7761 268.221 24.482 235.878C64.2602 214.576 63.4076 214.804 114.106 208.658C182.2 200.404 189.766 214.161 250.295 223.79C310.823 233.42 327.331 261.619 332.146 269.872C335.997 276.476 336.96 296.009 336.96 304.95C356.907 334.298 394.187 396.293 383.732 409.5C370.664 426.007 267.49 449.394 250.295 445.267C233.099 441.14 191.142 455.582 164.317 466.589C137.492 477.595 94.8467 456.96 76.2758 455.582Z" fill="#96ECAA"/>
<path fill-rule="evenodd" clip-rule="evenodd" d="M319.448 80.695H196.273C196.272 80.5789 196.272 80.4626 196.272 80.3462C196.272 62.5984 206.446 48.211 218.997 48.211C223.457 48.211 227.616 50.0273 231.125 53.1652C237.532 42.3824 251.155 34.9395 266.926 34.9395C286.746 34.9395 303.174 46.6954 306.148 62.0628C313.173 64.9319 318.41 72.0551 319.448 80.695Z" fill="white"/>
<path fill-rule="evenodd" clip-rule="evenodd" d="M158.637 138.931H-7.48044C-7.48162 138.775 -7.48222 138.618 -7.48222 138.46C-7.48222 114.525 6.23934 95.122 23.1657 95.122C29.1797 95.122 34.7891 97.5714 39.5222 101.803C48.162 87.2613 66.5346 77.2236 87.8036 77.2236C114.534 77.2236 136.689 93.078 140.699 113.803C150.174 117.672 157.237 127.279 158.637 138.931Z" fill="white"/>
<path d="M193.084 173.151C198.153 160.292 208.486 156.168 213.019 155.714L212.089 172.338L198.713 203.875L178.326 223.154C172.876 220.067 164.489 214.171 163.145 214.228L182.399 197.02C183.849 194.422 188.015 186.01 193.084 173.151Z" fill="#F4AC8D"/>
<path d="M172.797 228.744L184.011 217.857L182.411 197.035L165.031 210.874C164.515 210.566 159.786 210.751 153.618 212.673C152.36 213.064 156.069 217.031 155.655 217.629C153.63 220.941 149 225.214 148.147 226.814C147.294 228.414 148.251 229.489 148.836 229.827C150.479 230.568 154.533 232.417 158.616 234.255C162.699 236.092 170.845 230.278 172.797 228.744Z" fill="#F4AC8D"/>
<path d="M168.573 227.634L174.791 218.528L162.683 214.28C159.873 217.32 155.146 219.53 155.129 221.505C155.107 223.973 152.694 226.135 151.041 227.536C149.718 228.657 149.736 229.445 149.949 230.029C150.166 230.331 151.878 231.226 154.348 232.298C156.653 233.298 158.824 234.523 159.487 234.44C163.478 234.639 166.68 230.11 168.573 227.634Z" fill="#F4AC8D"/>
<path d="M151.492 231.304C152.13 229.754 153.979 226.39 156.272 225.331" stroke="#E06262" stroke-width="1.37964" stroke-linecap="round"/>
<path d="M156.246 233.459C156.884 231.91 158.734 228.545 161.027 227.487" stroke="#E06262" stroke-width="1.37964" stroke-linecap="round"/>
<rect x="184.722" y="232.653" width="2.72783" height="8.62808" rx="1.36391" fill="#57C874"/>
<rect x="189.721" y="229.588" width="2.72783" height="11.6926" rx="1.36391" fill="#57C874"/>
<rect x="194.72" y="231.506" width="2.72783" height="9.77287" rx="1.36391" fill="#57C874"/>
<path d="M207.356 133.214C213.793 133.84 215.859 128.853 216.088 126.282L245.008 124.431C249.083 138.372 236.42 140.254 231.404 140.033C223.51 141.348 211.777 136.072 207.356 133.214Z" fill="#1F1F1F"/>
<path d="M217.373 119.765C217.23 120.805 217.062 121.843 216.8 122.86C214.879 130.294 215.571 136.526 229.401 135.994C238.577 134.159 242.237 130.719 242.678 122.748C243.12 114.777 237.532 107.985 230.197 107.579C223.352 107.2 218.368 112.568 217.373 119.765Z" fill="#F4AC8D"/>
<path d="M244.52 121.176L240.208 120.937L236.499 118.784C237.447 116.374 236.594 114.46 236.049 113.804C236.306 116.543 235.275 117.757 234.728 118.022C229.402 116.417 221.193 117.169 217.755 117.745L217.262 120.795C214.759 119.525 211.543 114.034 218.571 107.291C225.598 100.547 233.937 103.885 236.468 106.243C237.439 105.943 240.126 105.679 243.974 109.245C247.822 112.812 246.335 119.236 245.78 121.246L244.255 125.952L244.52 121.176Z" fill="#1F1F1F"/>
<rect x="226.766" y="122.741" width="15.8854" height="21.4561" transform="rotate(3.17203 226.766 122.741)" fill="#F4AC8D"/>
<path d="M200.756 225.206C200.784 212.27 211.293 201.805 224.229 201.832C237.166 201.86 247.631 212.369 247.603 225.305L247.217 408.109L200.37 408.01L200.756 225.206Z" fill="#372100"/>
<path d="M257.343 221.195C254.592 207.722 240.838 199.543 227.686 203.559C216.188 207.07 209.244 218.747 211.649 230.526L231.973 330.067L271.737 397L314.487 380.495L276.338 314.212L257.343 221.195Z" fill="#372100"/>
<path d="M298.801 260.515L293.011 246.957L276.472 252.5C278.022 257.677 281.655 268.402 283.786 269.89C286.451 271.751 287.296 275.862 287.788 278.62C288.182 280.826 289.812 281.806 290.578 282.02C291.041 282.02 292.669 281.734 295.477 280.594C298.285 279.455 299.632 277.67 299.955 276.92C302.653 272.931 300.31 264.321 298.801 260.515Z" fill="#FF8E8E"/>
<ellipse cx="222.763" cy="120.151" rx="1.05194" ry="1.3301" transform="rotate(3.17203 222.763 120.151)" fill="#1F1F1F"/>
<ellipse cx="229.27" cy="120.512" rx="1.05194" ry="1.3301" transform="rotate(3.17203 229.27 120.512)" fill="#1F1F1F"/>
<ellipse cx="242.246" cy="123.6" rx="3.44663" ry="3.92076" transform="rotate(3.17203 242.246 123.6)" fill="#F4AC8D"/>
<path d="M232.579 141.515C258.851 142.971 269.562 157.63 271.633 164.777L250.969 170.293L256.389 187.696L256.655 214.789L203.068 211.002L207.719 184.024L188.306 174.954C204.53 141.159 222.739 140.97 232.579 141.515Z" fill="#FF5555"/>
<path fill-rule="evenodd" clip-rule="evenodd" d="M257.815 193.073L277.565 255.948L294.014 250.407L271.387 172.9C270.268 169.039 266.54 161.756 259.205 155.647L254.592 162.827L257.815 193.073Z" fill="#F4AC8D"/>
<path d="M276.342 172.957C274.22 163.337 265.148 153.453 260.729 150.768C256.883 153.604 249.583 162.51 248.488 165.309C244.491 174.324 256.201 187.562 257.102 195.473L280.103 190.197L276.342 172.957Z" fill="#FF5555"/>
<path d="M222.073 125.769C222.816 126.401 225.338 127.256 229.477 125.617" stroke="#1F1F1F" stroke-width="1.36404" stroke-linecap="round"/>
<mask id="mask0_2634_18722" style="mask-type:alpha" maskUnits="userSpaceOnUse" x="276" y="246" width="26" height="36">
<path d="M299.076 260.308L293.222 246.793L276.587 251.778C278.065 257.053 281.553 267.991 283.686 269.539C286.353 271.472 287.135 275.656 287.584 278.459C287.943 280.703 289.578 281.726 290.35 281.957C290.82 281.965 292.475 281.704 295.342 280.6C298.209 279.496 299.607 277.712 299.947 276.958C302.755 272.963 300.536 264.193 299.076 260.308Z" fill="#FF8E8E"/>
</mask>
<g mask="url(#mask0_2634_18722)">
<path d="M297.703 271.206C298.172 273.314 298.716 278.158 297.14 280.672" stroke="#E06262" stroke-width="1.36404" stroke-linecap="round"/>
<path d="M293.249 273.362C293.718 275.47 294.261 280.314 292.685 282.828" stroke="#E06262" stroke-width="1.36404" stroke-linecap="round"/>
</g>
<path d="M111.624 162.554C105.877 146.618 93.3665 141.195 87.8297 140.475L24.656 169.966L18.8404 193.865L10.5615 213.061L22.4018 233.937L37.5986 202.322C39.0059 195.752 41.8787 182.401 42.1118 181.557C42.345 180.713 46.6575 177.223 48.7846 175.583L88.3706 160.874L103.623 199.99L127.904 224.342C134.691 220.756 145.179 213.835 146.823 213.953L123.855 192.179C122.172 188.944 117.371 178.49 111.624 162.554Z" fill="#FF8E8E"/>
<path d="M134.476 231.389L121.13 217.648L123.839 192.197L144.633 209.777C145.277 209.418 151.062 209.815 158.55 212.391C160.077 212.916 155.391 217.642 155.876 218.39C158.237 222.52 163.756 227.922 164.744 229.912C165.731 231.902 164.52 233.185 163.791 233.578C161.751 234.427 156.719 236.546 151.651 238.65C146.582 240.754 136.812 233.338 134.476 231.389Z" fill="#FF8E8E"/>
<path d="M139.69 230.181L132.401 218.803L147.386 214.034C150.72 217.859 156.431 220.737 156.381 223.157C156.319 226.181 159.198 228.916 161.172 230.693C162.752 232.114 162.702 233.078 162.421 233.786C162.143 234.148 160.014 235.183 156.949 236.407C154.09 237.549 151.386 238.972 150.576 238.846C145.68 238.946 141.92 233.282 139.69 230.181Z" fill="#FF8E8E"/>
<path d="M160.484 235.293C159.758 233.371 157.614 229.183 154.842 227.804" stroke="#E06262" stroke-width="1.5" stroke-linecap="round"/>
<path d="M154.582 237.762C153.856 235.84 151.712 231.652 148.94 230.273" stroke="#E06262" stroke-width="1.5" stroke-linecap="round"/>
<path d="M92.0248 114.774C92.0113 115.441 92.0352 116.111 92.1275 116.771C93.2236 124.617 92.0207 131.046 78.0922 128.713C69.2603 125.739 66.0813 121.878 66.6542 113.948C67.2271 106.018 73.6066 100.017 80.9033 100.544C87.8902 101.049 92.1764 107.284 92.0248 114.774Z" fill="#FF8E8E"/>
<rect width="15.8197" height="21.3674" transform="matrix(-0.997401 -0.072057 -0.072057 0.997401 82.3691 115.957)" fill="#FF8E8E"/>
<path fill-rule="evenodd" clip-rule="evenodd" d="M64.8124 197.133C78.3262 193.45 92.2736 201.389 96.0069 214.889L137.383 364.51L137.832 365.261L137.594 365.273L137.669 365.542L127.719 365.766L17.8703 371.26L24.5936 312.113L39.3646 219.91C41.3911 207.261 51.8595 198.317 63.819 197.425C64.1469 197.322 64.4781 197.224 64.8124 197.133Z" fill="black"/>
<ellipse cx="1.04759" cy="1.3246" rx="1.04759" ry="1.3246" transform="matrix(-0.997401 -0.072057 -0.072057 0.997401 87.7946 112.662)" fill="#1F1F1F"/>
<ellipse cx="1.04759" cy="1.3246" rx="1.04759" ry="1.3246" transform="matrix(-0.997401 -0.072057 -0.072057 0.997401 81.3165 112.194)" fill="#1F1F1F"/>
<path d="M69.9166 113.261C73.3645 112.735 75.6354 108.008 76.2948 106.333C77.1328 109.189 89.7875 107.901 91.9984 115.952C94.5618 115.04 98.331 110.156 92.4045 102.805C86.478 95.4544 78.0478 97.6363 75.3241 99.5922C74.4274 99.1834 71.8755 98.5983 67.7358 101.554C63.5961 104.509 64.2339 110.87 64.5199 112.871L65.4063 117.584L65.7404 112.959L69.9166 113.261Z" fill="#1F1F1F"/>
<ellipse cx="3.43238" cy="3.90455" rx="3.43238" ry="3.90455" transform="matrix(-0.997401 -0.072057 -0.072057 0.997401 70.6772 111.196)" fill="#FF8E8E"/>
<path d="M86.616 119.542C85.8015 120.073 83.2025 120.598 79.3221 118.455" stroke="#1F1F1F" stroke-width="0.866667" stroke-linecap="round"/>
<path fill-rule="evenodd" clip-rule="evenodd" d="M40.2341 142.638C46.8908 137.286 57.8856 132.58 74.254 133.763C80.6701 134.227 91.8555 136.842 100.281 143.434L100.34 143.409C103.14 145.227 109.547 150.693 112.772 158.02L119.406 176.532L96.6692 185.918L94.1075 177.998L92.4527 206.439L42.1682 203.62L43.7522 181.694C43.5586 182.502 43.373 183.26 43.2017 183.957L21.1492 175.833L27.0469 159.28C30.1233 150.709 36.6925 144.909 40.2341 142.638ZM94.3948 173.059L94.4441 172.213L94.5311 172.131L94.3948 173.059Z" fill="#C6B8F6"/>
<rect x="118.697" y="256.384" width="2.72783" height="8.62808" rx="1.36391" fill="#57C874"/>
<rect x="123.696" y="253.319" width="2.72783" height="11.6926" rx="1.36391" fill="#57C874"/>
<rect x="128.695" y="255.237" width="2.72783" height="9.77287" rx="1.36391" fill="#57C874"/>
<g filter="url(#filter0_d_2634_18722)">
<path fill-rule="evenodd" clip-rule="evenodd" d="M113.907 80.8905C133.166 80.8905 148.779 69.7086 148.779 55.915C148.779 42.1214 133.166 30.9395 113.907 30.9395C94.6484 30.9395 79.0359 42.1214 79.0359 55.915C79.0359 62.5846 82.6861 68.6436 88.6337 73.1231V84.7689C88.6337 86.7919 91.2934 87.5361 92.3433 85.8069L97.1829 77.836C102.148 79.7834 107.847 80.8905 113.907 80.8905Z" fill="#FFBC3F"/>
</g>
<circle cx="100.962" cy="55.9146" r="3.33838" fill="white"/>
<circle cx="113.763" cy="55.9146" r="3.33838" fill="white"/>
<circle cx="126.564" cy="55.9146" r="3.33838" fill="white"/>
<g filter="url(#filter1_d_2634_18722)">
<path fill-rule="evenodd" clip-rule="evenodd" d="M198.166 93.7079C178.907 93.7079 163.295 82.526 163.295 68.7324C163.295 54.9388 178.907 43.7568 198.166 43.7568C217.425 43.7568 233.037 54.9388 233.037 68.7324C233.037 75.402 229.387 81.461 223.44 85.9405V97.5863C223.44 99.6092 220.78 100.353 219.73 98.6243L214.89 90.6534C209.925 92.6007 204.226 93.7079 198.166 93.7079Z" fill="#FFBC3F"/>
</g>
<path d="M198.167 62.1281C199.382 61.0608 200.964 60.0858 202.58 60.1646C204.195 60.2434 205.717 60.9476 206.822 62.1281C207.928 63.3085 208.531 64.8728 208.503 66.4899C208.476 68.107 207.821 69.6501 206.677 70.7928L201.452 76.0178L198.165 79.3028L190.885 72.0238L189.655 70.7918C188.51 69.6489 187.855 68.1058 187.829 66.4888C187.802 64.8719 188.405 63.3078 189.51 62.1276C190.616 60.9473 192.137 60.2433 193.753 60.1646C195.368 60.0859 196.951 61.0609 198.167 62.1281Z" fill="white"/>
</g>
<defs>
<filter id="filter0_d_2634_18722" x="78.0359" y="30.9395" width="70.7428" height="57.833" filterUnits="userSpaceOnUse" color-interpolation-filters="sRGB">
<feFlood flood-opacity="0" result="BackgroundImageFix"/>
<feColorMatrix in="SourceAlpha" type="matrix" values="0 0 0 0 0 0 0 0 0 0 0 0 0 0 0 0 0 0 127 0" result="hardAlpha"/>
<feOffset dx="-1" dy="2"/>
<feComposite in2="hardAlpha" operator="out"/>
<feColorMatrix type="matrix" values="0 0 0 0 0.903406 0 0 0 0 0.558387 0 0 0 0 0 0 0 0 1 0"/>
<feBlend mode="normal" in2="BackgroundImageFix" result="effect1_dropShadow_2634_18722"/>
<feBlend mode="normal" in="SourceGraphic" in2="effect1_dropShadow_2634_18722" result="shape"/>
</filter>
<filter id="filter1_d_2634_18722" x="163.295" y="43.7568" width="71.7428" height="57.833" filterUnits="userSpaceOnUse" color-interpolation-filters="sRGB">
<feFlood flood-opacity="0" result="BackgroundImageFix"/>
<feColorMatrix in="SourceAlpha" type="matrix" values="0 0 0 0 0 0 0 0 0 0 0 0 0 0 0 0 0 0 127 0" result="hardAlpha"/>
<feOffset dx="2" dy="2"/>
<feComposite in2="hardAlpha" operator="out"/>
<feColorMatrix type="matrix" values="0 0 0 0 0.903406 0 0 0 0 0.558387 0 0 0 0 0 0 0 0 1 0"/>
<feBlend mode="normal" in2="BackgroundImageFix" result="effect1_dropShadow_2634_18722"/>
<feBlend mode="normal" in="SourceGraphic" in2="effect1_dropShadow_2634_18722" result="shape"/>
</filter>
<linearGradient id="paint0_linear_2634_18722" x1="151" y1="-33" x2="151" y2="282.5" gradientUnits="userSpaceOnUse">
<stop stop-color="#C9F7FF"/>
<stop offset="1" stop-color="white"/>
</linearGradient>
<clipPath id="clip0_2634_18722">
<path d="M0.5 150C0.5 67.1573 67.6573 0 150.5 0C233.343 0 300.5 67.1573 300.5 150C300.5 232.843 233.343 300 150.5 300C67.6573 300 0.5 232.843 0.5 150Z" fill="white"/>
</clipPath>
</defs>
</svg>
