<svg width="261" height="260" viewBox="0 0 261 260" fill="none" xmlns="http://www.w3.org/2000/svg">
<path d="M16.645 244.26C20.8943 244.26 170.224 244.26 244.358 244.26" stroke="#F5F5F5" stroke-width="3.46667" stroke-linecap="round"/>
<path d="M9.17004 40.6987C100.954 9.38159 156.492 5.16678 251.074 40.6603L235.488 92.864C147.591 69.9741 104.625 66.8016 26.3822 96.602L9.17004 40.6987Z" fill="#FF4EA3"/>
<path d="M25.8846 94.2465L10.4441 43.0891C62.2577 25.6557 101.352 18.0439 137.889 18.6308C174.408 19.2174 208.405 27.9946 250.031 43.3925L236.137 90.7347C194.138 80.2104 163.542 72.9334 132.461 72.3701C101.369 71.8066 69.8179 77.9606 25.8846 94.2465Z" stroke="#FFA9D2" stroke-width="0.866667"/>
<path d="M165.313 129.031L161.754 142.271L153.322 140.926L157.18 128.79C156.98 128.638 156.319 126.776 156.107 124.086C156.064 123.538 158.177 124.361 158.345 124.108C159.315 122.809 160.254 120.351 160.742 119.772C161.23 119.193 161.795 119.398 162.017 119.572C162.559 120.094 163.905 121.379 165.25 122.678C166.596 123.976 165.605 128.036 165.313 129.031Z" fill="#FF8E8E"/>
<path d="M186.221 118.696C189.077 118.815 189.867 116.564 189.905 115.423L202.624 113.899C204.763 119.952 199.22 121.093 197.001 121.117C193.549 121.891 188.242 119.85 186.221 118.696Z" fill="#1F1F1F"/>
<path d="M123.436 118.847C125.369 117.865 125.532 112.586 125.372 110.068C128.893 111.978 135.72 116.369 134.857 118.66C133.994 120.951 137.498 124.152 139.357 125.467L115.997 126.359C114.212 121.338 121.018 120.073 123.436 118.847Z" fill="#363637"/>
<rect x="119.281" y="217.193" width="6.46697" height="21.7999" fill="#FF8E8E"/>
<rect x="149.441" y="217.99" width="6.46697" height="21.7999" transform="rotate(-15.5452 149.441 217.99)" fill="#FF8E8E"/>
<path d="M137.003 112.518C137.086 113.18 137.153 113.846 137.27 114.502C137.805 117.524 137.201 119.933 131.596 119.405C127.777 118.419 126.317 116.885 126.317 113.52C126.317 110.154 128.827 107.426 131.924 107.426C134.707 107.426 136.64 109.629 137.003 112.518Z" fill="#FF8E8E"/>
<rect width="6.69689" height="9.04538" transform="matrix(-1 0 0 1 133.013 113.888)" fill="#FF8E8E"/>
<path fill-rule="evenodd" clip-rule="evenodd" d="M128.076 148.699C133.67 146.731 139.801 149.658 141.789 155.244L163.823 217.156L164.036 217.459L163.936 217.472L163.975 217.583L159.787 217.981L113.568 223.652L114.602 198.473L118.026 159.092C118.496 153.69 122.643 149.594 127.665 148.853C127.8 148.799 127.938 148.747 128.076 148.699Z" fill="black"/>
<path d="M106.935 174.599L108.534 168.6L101.731 165.897C100.839 168.028 99.1319 172.557 99.4327 173.627C99.8087 174.963 98.9732 176.551 98.3883 177.595C97.9203 178.431 98.1933 179.197 98.3883 179.476C98.5415 179.601 99.157 179.948 100.394 180.332C101.63 180.717 102.559 180.493 102.869 180.332C104.842 179.746 106.402 176.266 106.935 174.599Z" fill="#FF8E8E"/>
<ellipse cx="0.443474" cy="0.560739" rx="0.443474" ry="0.560739" transform="matrix(-1 0 0 1 135.203 112.332)" fill="#1F1F1F"/>
<ellipse cx="0.443474" cy="0.560739" rx="0.443474" ry="0.560739" transform="matrix(-1 0 0 1 132.454 112.332)" fill="#1F1F1F"/>
<path d="M127.673 113.13C129.113 112.803 129.927 110.738 130.155 110.01C130.596 111.191 135.9 110.261 137.079 113.593C138.133 113.129 139.576 110.952 136.849 108.029C134.123 105.107 130.63 106.285 129.539 107.194C129.148 107.049 128.053 106.879 126.395 108.254C124.737 109.628 125.201 112.294 125.382 113.13L125.901 115.093V113.13H127.673Z" fill="#1F1F1F"/>
<ellipse cx="1.45302" cy="1.6529" rx="1.45302" ry="1.6529" transform="matrix(-1 0 0 1 127.931 112.236)" fill="#FF8E8E"/>
<path fill-rule="evenodd" clip-rule="evenodd" d="M118.296 142.778L108.519 168.776L101.724 166.06L113.137 130.697C113.642 129.258 115.047 127.12 117.632 125.302L120.36 130.115L118.296 142.778ZM141.142 124.934C143.23 126.276 145.025 128.142 146.011 130.697L151.93 144.873L153.683 139.844L161.751 142.183L158.942 151.884C158.5 153.494 156.371 156.683 151.386 156.558C149.828 156.61 146.322 155.53 144.764 150.794L139.788 138.39L141.142 124.934Z" fill="#FF8E8E"/>
<path d="M134.916 115.273C134.588 115.522 133.506 115.823 131.803 115.036" stroke="#1F1F1F" stroke-width="0.866667" stroke-linecap="round"/>
<mask id="mask0_2369_18505" style="mask-type:alpha" maskUnits="userSpaceOnUse" x="98" y="119" width="68" height="62">
<path d="M106.937 174.603L108.536 168.603L101.733 165.901C100.841 168.032 99.134 172.56 99.4348 173.63C99.8108 174.967 98.9752 176.554 98.3903 177.599C97.9224 178.434 98.1954 179.2 98.3903 179.479C98.5435 179.604 99.1591 179.951 100.396 180.336C101.632 180.721 102.561 180.496 102.871 180.336C104.844 179.749 106.404 176.269 106.937 174.603Z" fill="#FF8E8E"/>
<path d="M163.859 128.804L160.581 133.655L154.135 129.806C155.086 127.824 157.231 123.76 158.202 123.365C159.416 122.872 160.011 121.257 160.38 120.167C160.674 119.294 161.066 119.149 161.396 119.14C161.588 119.188 162.365 119.858 163.378 120.868C164.322 121.81 165.352 122.642 165.441 122.985C166.32 124.917 164.711 127.384 163.859 128.804Z" fill="#FF8E8E"/>
</mask>
<g mask="url(#mask0_2369_18505)">
<path d="M103.842 177.8C103.378 178.583 102.148 180.229 100.938 180.547" stroke="#E06262" stroke-width="0.65" stroke-linecap="round"/>
<path d="M101.852 177.178C101.388 177.961 100.158 179.608 98.9479 179.926" stroke="#E06262" stroke-width="0.65" stroke-linecap="round"/>
<path d="M164.765 121.504C164.604 122.389 164.028 124.339 163.007 125.06" stroke="#E06262" stroke-width="0.65" stroke-linecap="round"/>
<path d="M162.937 120.079C162.753 120.959 162.124 122.893 161.084 123.586" stroke="#E06262" stroke-width="0.65" stroke-linecap="round"/>
</g>
<path fill-rule="evenodd" clip-rule="evenodd" d="M116.039 126.438C118.686 123.976 123.185 121.655 130.13 121.655C132.853 121.655 137.655 122.418 141.414 124.944L141.438 124.932C142.676 125.614 145.548 127.727 147.133 130.722L150.499 138.336L141.185 142.992L139.862 139.726L140.031 151.785L118.713 152.129V142.823C118.656 143.17 118.601 143.495 118.55 143.795L108.991 141.038L110.976 133.869C112.014 130.154 114.613 127.504 116.039 126.438ZM139.832 137.632L139.827 137.274L139.862 137.236L139.832 137.632Z" fill="#C6B8F6"/>
<path d="M156.204 242.618L153.824 233.619L160.095 231.961C161.177 234.569 164.712 235.574 166.269 235.692C168.777 234.887 170.012 236.329 170.317 237.151L170.746 238.773L156.204 242.618Z" fill="#F1660F"/>
<path d="M125.749 242.619L125.749 233.31L119.263 233.31C118.884 236.108 115.723 237.983 114.248 238.495C111.618 238.359 110.792 240.069 110.707 240.941L110.707 242.619L125.749 242.619Z" fill="#F1660F"/>
<path d="M190.086 111.876C190.01 112.538 189.942 113.204 189.822 113.86C189.203 117.23 189.818 119.94 196.047 119.354C200.251 118.268 201.857 116.581 201.857 112.877C201.857 109.174 199.095 106.171 195.687 106.171C192.592 106.171 190.453 108.647 190.086 111.876Z" fill="#FF8E8E"/>
<path d="M197.91 242.619L197.91 232.375L190.773 232.375C190.355 235.454 186.877 237.518 185.254 238.081C182.36 237.931 181.451 239.813 181.358 240.772L181.358 242.619L197.91 242.619Z" fill="#290000"/>
<path d="M244.262 210.381L235.828 204.568L231.777 210.445C234.075 212.536 233.801 216.57 233.343 218.227C231.577 220.525 232.61 222.341 233.348 222.962L234.868 224.01L244.262 210.381Z" fill="#290000"/>
<rect x="194.489" y="113.281" width="7.36938" height="9.9537" fill="#FF8E8E"/>
<path d="M185.625 156.715C186.185 151.073 191.015 146.825 196.682 146.991C202.97 147.175 207.769 152.677 207.098 158.932L201.946 206.97L204.872 236.004L183.148 235.367L181.353 199.767L185.625 156.715Z" fill="#290000"/>
<path d="M212.363 158.615C210.899 153.128 205.36 149.777 199.82 151.029C193.761 152.397 190.182 158.669 192.086 164.581L204.204 202.214L228.279 219.529L239.644 203.156L220.401 188.741L212.363 158.615Z" fill="#290000"/>
<ellipse cx="192.565" cy="112.185" rx="0.488007" ry="0.617047" fill="#1F1F1F"/>
<ellipse cx="195.59" cy="112.185" rx="0.488007" ry="0.617047" fill="#1F1F1F"/>
<path d="M202.312 112.448H200.361L198.635 111.569C199.002 110.459 198.57 109.617 198.308 109.335C198.492 110.564 198.058 111.137 197.817 111.27C195.376 110.679 191.693 111.223 190.157 111.569L190.011 112.957C188.851 112.447 187.263 110.051 190.264 106.835C193.264 103.618 197.108 104.915 198.308 105.915C198.738 105.755 199.943 105.569 201.767 107.081C203.592 108.593 203.082 111.527 202.882 112.448L202.312 114.608V112.448Z" fill="#1F1F1F"/>
<ellipse cx="201.683" cy="113.283" rx="1.59893" ry="1.81888" fill="#FF8E8E"/>
<path fill-rule="evenodd" clip-rule="evenodd" d="M185.342 142.643L174.625 168.889L167.357 166.213L179.565 131.371C180.088 129.998 181.514 127.98 184.113 126.227L186.022 129.357L185.294 142.274L185.342 142.643ZM208.761 125.268C211.314 126.612 213.557 128.572 214.73 131.371L221.063 145.339L222.937 140.383L231.568 142.687L228.563 152.246C228.091 153.832 225.813 156.974 220.48 156.851C218.814 156.902 215.064 155.838 213.397 151.172L207.648 137.971L206.064 151.172H205.957L208.761 125.268Z" fill="#FF8E8E"/>
<path d="M193.089 114.776C193.296 115.056 193.994 115.406 195.132 114.572" stroke="#1F1F1F" stroke-width="0.866667" stroke-linecap="round"/>
<path fill-rule="evenodd" clip-rule="evenodd" d="M213.158 127.086C210.243 124.379 205.296 121.831 197.661 121.831C194.664 121.831 189.378 122.671 185.242 125.451L185.216 125.438C183.854 126.188 180.694 128.513 178.949 131.809L175.245 140.187L185.494 145.311L186.316 143.283V144.842V153.471H210.224V145.98L220.925 143.16L218.74 135.271C217.595 131.173 214.724 128.253 213.158 127.086Z" fill="#FF9513"/>
<rect width="2.41647" height="125.442" transform="matrix(-0.958982 -0.283468 -0.283468 0.958982 253.397 38.5635)" fill="#4C2910"/>
<path d="M234.229 132.747L231.485 142.781L222.427 143.392L225.784 132.006C225.567 131.847 225.027 131.428 224.599 131.019C224.171 130.609 224.42 129.971 224.599 129.702C225.631 128.325 227.824 125.418 228.344 124.804C228.864 124.189 229.475 124.399 229.716 124.58C230.305 125.125 231.85 126.552 233.313 127.906C234.776 129.259 234.533 131.697 234.229 132.747Z" fill="#FF8E8E"/>
<path d="M67.054 242.618L67.054 232.375L74.1915 232.375C74.6089 235.454 78.0868 237.518 79.7102 238.081C82.6045 237.931 83.5135 239.812 83.6063 240.772L83.6063 242.618L67.054 242.618Z" fill="#290000"/>
<path d="M166.088 168.472L168.834 162.502L176.204 164.892C175.492 167.23 173.828 172.074 172.86 172.743C171.652 173.579 171.261 175.437 171.033 176.683C170.851 177.68 170.111 178.12 169.764 178.216C169.555 178.215 168.819 178.082 167.551 177.561C166.283 177.04 165.678 176.23 165.533 175.89C164.321 174.08 165.398 170.191 166.088 168.472Z" fill="#FF8E8E"/>
<mask id="mask1_2369_18505" style="mask-type:alpha" maskUnits="userSpaceOnUse" x="164" y="124" width="71" height="55">
<path d="M165.571 169.052L167.779 163.629L174.879 166.067C174.357 168.203 173.096 172.621 172.227 173.208C171.141 173.941 170.891 175.644 170.755 176.787C170.647 177.701 169.978 178.084 169.657 178.161C169.459 178.153 168.757 178.008 167.529 177.487C166.3 176.966 165.678 176.199 165.52 175.881C164.262 174.172 165.029 170.616 165.571 169.052Z" fill="#FF8E8E"/>
<path d="M234.453 132.068L232.116 141.403L222.35 142.441L225.891 131.79C225.666 131.655 225.102 131.297 224.652 130.941C224.202 130.586 224.426 129.989 224.595 129.734C225.577 128.422 227.667 125.65 228.165 125.062C228.664 124.473 229.29 124.636 229.541 124.791C230.16 125.263 231.782 126.498 233.319 127.67C234.855 128.842 234.715 131.09 234.453 132.068Z" fill="#FF8E8E"/>
</mask>
<g mask="url(#mask1_2369_18505)">
<path d="M165.822 177.019C165.872 176.13 166.216 174.12 167.183 173.19" stroke="#E06262" stroke-width="0.649999" stroke-linecap="round"/>
<path d="M227.087 125.971C227.974 126.305 229.873 127.245 230.367 128.331" stroke="#E06262" stroke-width="0.65" stroke-linecap="round"/>
<path d="M168.321 177.682C168.371 176.793 168.715 174.783 169.682 173.853" stroke="#E06262" stroke-width="0.649999" stroke-linecap="round"/>
<path d="M225.297 127.821C226.184 128.155 228.083 129.095 228.578 130.181" stroke="#E06262" stroke-width="0.65" stroke-linecap="round"/>
</g>
<path d="M61.6286 110.233C61.955 110.814 62.2757 111.401 62.6411 111.959C64.5191 114.826 65.0026 117.562 59.0338 119.437C54.7385 120.067 52.6032 119.135 51.1668 115.721C49.7305 112.307 51.1126 108.469 54.2538 107.147C57.1063 105.947 60.0382 107.399 61.6286 110.233Z" fill="#FF8E8E"/>
<path d="M23.1339 218.14L31.568 212.327L35.6186 218.203C33.3204 220.295 33.5949 224.329 34.0525 225.986C35.8187 228.283 34.7854 230.1 34.0479 230.721L32.5276 231.769L23.1339 218.14Z" fill="#290000"/>
<rect width="7.36938" height="9.9537" transform="matrix(-0.921736 0.387818 0.387818 0.921736 58.113 113.235)" fill="#FF8E8E"/>
<path d="M79.3375 156.715C78.7777 151.073 73.9479 146.826 68.2803 146.992C61.9921 147.176 57.1931 152.677 57.864 158.932L63.0164 206.971L60.0905 236.004L81.8141 235.368L83.609 199.768L79.3375 156.715Z" fill="#093D4A"/>
<path d="M52.1365 157.887C53.8785 152.716 59.248 149.7 64.5704 150.902C70.8404 152.318 74.4351 158.925 72.2179 164.958L57.3573 205.397L40.5956 223.67L25.402 209.684L39.9831 193.962L52.1365 157.887Z" fill="#093D4A"/>
<ellipse cx="0.488007" cy="0.617047" rx="0.488007" ry="0.617047" transform="matrix(-0.921736 0.387818 0.387818 0.921736 59.6736 110.722)" fill="#1F1F1F"/>
<ellipse cx="0.488007" cy="0.617047" rx="0.488007" ry="0.617047" transform="matrix(-0.921736 0.387818 0.387818 0.921736 56.884 111.893)" fill="#1F1F1F"/>
<path d="M52.3796 114.745C53.7004 113.799 53.6452 111.356 53.5654 110.522C54.5164 111.531 57.1978 111.215 58.3066 110.663L57.8261 109.521C58.965 110.415 60.7234 110.69 61.1804 110.53L61.4649 109.954C61.5962 110.509 61.9544 111.016 62.1171 111.2C62.9889 110.28 63.5229 107.456 59.51 105.655C55.4971 103.854 52.4572 106.54 51.7392 107.927C51.2805 107.947 50.0973 108.243 49.0023 110.344C47.9073 112.445 49.5151 114.952 50.0563 115.723L51.4195 117.493L50.5818 115.501L52.3796 114.745Z" fill="#1F1F1F"/>
<ellipse cx="1.59893" cy="1.81888" rx="1.59893" ry="1.81888" transform="matrix(-0.921736 0.387818 0.387818 0.921736 52.2495 113.729)" fill="#FF8E8E"/>
<path fill-rule="evenodd" clip-rule="evenodd" d="M99.6211 103.617L91.1478 99.125L81.5513 114.897L69.9451 120.849C65.4213 121.004 66.5499 121.329 67.5705 121.623C68.3415 121.845 69.0508 122.05 67.2169 122.15L78.4146 123.677L75.2105 128.949L76.0942 133.989L89.037 122.958L99.6211 103.617ZM55.2761 150.765L52.4722 124.861C49.9184 126.205 47.6755 128.165 46.5024 130.964L40.17 144.932L38.2953 139.976L29.6653 142.28L32.6699 151.839C33.1421 153.425 35.4197 156.567 40.7527 156.444C42.4193 156.495 46.169 155.431 47.8356 150.765L53.5852 137.564L55.1684 150.765H55.2761Z" fill="#FF8E8E"/>
<path d="M101.313 100.384L98.1 106.511L85.7674 108.176L91.2196 98.1033C91.0076 97.8645 90.6356 95.3792 91.0269 91.9703C91.1067 91.2752 93.5437 92.817 93.815 92.542C95.3424 91.1572 97.1131 88.3177 97.8632 87.7141C98.6132 87.1106 99.2693 87.5032 99.5036 87.775C100.053 88.5592 101.42 90.4907 102.783 92.4392C104.146 94.3876 101.92 99.214 101.313 100.384Z" fill="#FF8E8E"/>
<path d="M60.6311 113.826C60.405 114.218 59.4367 114.985 57.3728 114.914" stroke="#1F1F1F" stroke-width="0.866667" stroke-linecap="round"/>
<path d="M27.0048 132.346L29.749 142.38L39.4453 143.008L35.4499 131.605C35.6665 131.446 36.2066 131.027 36.6347 130.618C37.0627 130.208 36.813 129.57 36.6347 129.302C35.6028 127.925 33.4091 125.017 32.8893 124.403C32.3696 123.789 31.7583 123.998 31.5176 124.179C30.9281 124.724 29.3832 126.151 27.9203 127.505C26.4573 128.858 26.7004 131.296 27.0048 132.346Z" fill="#FF8E8E"/>
<path fill-rule="evenodd" clip-rule="evenodd" d="M75.3453 136.621L83.7023 130.832L77.8969 116.663C75.5506 117.28 73.52 118.138 71.0621 119.177C70.0409 119.609 68.946 120.071 67.724 120.561C65.0016 120.384 62.487 120.673 60.7895 121.064C55.0387 122.39 51.1947 124.839 48.7147 127.403C48.0552 127.892 47.3637 128.795 46.6538 129.992C46.2134 130.677 45.86 131.346 45.5826 131.979C45.0524 133.045 44.5159 134.236 43.9786 135.504L40.8021 143.048L51.6087 146.17C51.8312 145.443 52.0637 144.626 52.2833 143.749L53.9421 153.541L78.8545 150.925L75.3453 136.621Z" fill="#60B0FF"/>
<mask id="mask2_2369_18505" style="mask-type:alpha" maskUnits="userSpaceOnUse" x="26" y="88" width="78" height="55">
<path d="M100.316 98.2907L96.1808 102.437L90.5771 97.4416C91.8847 95.6741 94.7569 92.0879 95.7853 91.8831C97.0708 91.6272 97.9598 90.1538 98.5272 89.1524C98.9811 88.3513 99.3937 88.2825 99.7195 88.3356C99.8987 88.4192 100.536 89.2235 101.339 90.4063C102.089 91.5097 102.944 92.5209 102.966 92.8753C103.466 94.9379 101.42 97.0576 100.316 98.2907Z" fill="#FF8E8E"/>
<path d="M26.7877 131.672L29.1244 141.007L38.8905 142.045L35.3494 131.394C35.575 131.259 36.1387 130.901 36.5888 130.545C37.0389 130.19 36.8144 129.593 36.6458 129.338C35.6633 128.026 33.5737 125.254 33.0753 124.666C32.577 124.077 31.9505 124.24 31.6996 124.395C31.0805 124.867 29.4583 126.102 27.9221 127.274C26.3859 128.446 26.5257 130.694 26.7877 131.672Z" fill="#FF8E8E"/>
</mask>
<g mask="url(#mask2_2369_18505)">
<path d="M34.151 125.574C33.2637 125.908 31.3652 126.848 30.8704 127.934" stroke="#E06262" stroke-width="0.65" stroke-linecap="round"/>
<path d="M35.9452 127.425C35.0578 127.759 33.1594 128.699 32.6645 129.785" stroke="#E06262" stroke-width="0.65" stroke-linecap="round"/>
<path d="M100.314 89.4424C99.5689 89.9289 97.9967 91.2273 97.6718 92.5287" stroke="#E06262" stroke-width="0.65" stroke-linecap="round"/>
<path d="M102.134 91.2808C101.388 91.7673 99.8159 93.0657 99.491 94.367" stroke="#E06262" stroke-width="0.65" stroke-linecap="round"/>
</g>
<rect x="7.60254" y="38.5635" width="2.41647" height="125.442" transform="rotate(-16.4673 7.60254 38.5635)" fill="#4C2910"/>
<g clip-path="url(#clip0_2369_18505)">
<path d="M43.8413 72.2947C39.8927 64.9871 35.8114 57.7424 31.6052 50.5696C33.8552 49.7072 36.1173 48.8808 38.3793 48.0813C39.6633 50.8615 40.9312 53.6462 42.191 56.4354C43.3824 59.0629 44.6664 62.0722 45.6767 64.4033C45.6968 64.3943 45.721 64.3898 45.7411 64.3808C45.3587 61.5736 45.0528 58.5554 44.759 55.4698C44.4651 52.3796 44.1874 49.285 43.9218 46.1904C46.1838 45.4448 48.4539 44.7262 50.7281 44.0435C51.9638 46.9854 53.1914 49.9363 54.3989 52.8872C55.4897 55.5371 56.355 57.9131 57.313 60.5496C57.3331 60.5451 57.3573 60.5361 57.3814 60.5316C57.0594 57.729 56.8139 54.7646 56.5845 51.7958C56.3591 48.7101 56.1457 45.62 55.9485 42.5254C58.114 41.9191 60.2875 41.3352 62.461 40.7827C62.143 49.3838 61.9699 57.9715 61.9498 66.5367C59.7964 67.1341 57.6471 67.7629 55.5058 68.4186C54.2379 65.4318 52.9539 62.454 51.6579 59.4806C50.7925 57.4864 49.9231 55.3485 48.9128 52.5952C48.8886 52.6042 48.8685 52.6087 48.8444 52.6177C49.1704 55.5731 49.4481 57.9131 49.585 60.1678C49.8184 63.469 50.072 66.7658 50.3376 70.0625C48.1682 70.7766 46.0027 71.5222 43.8453 72.2947H43.8413Z" fill="white"/>
<path d="M84.2563 51.2164C81.4791 51.7105 78.7058 52.2495 75.9407 52.8333C76.1942 54.338 76.4518 55.8426 76.7054 57.3473C79.7523 56.705 82.8073 56.1166 85.8663 55.5821C86.1159 57.3787 86.3695 59.1753 86.619 60.9719C81.6039 61.8432 76.6088 62.8672 71.6299 64.044C70.0883 55.919 68.5427 47.7894 67.0011 39.6644C72.2054 38.4338 77.4339 37.3558 82.6745 36.4351C82.9281 38.2316 83.1817 40.0282 83.4352 41.8203C80.4044 42.3548 77.3816 42.9387 74.3669 43.5765C74.5883 44.8925 74.8137 46.2085 75.0391 47.5289C77.8525 46.9361 80.6701 46.3881 83.4916 45.8851C83.7452 47.6637 83.9987 49.4378 84.2523 51.2164H84.2563Z" fill="white"/>
<path d="M88.6155 35.4602C90.785 35.1278 92.9544 34.8224 95.132 34.5439C95.7921 40.9443 96.4562 47.3446 97.1163 53.7449C100.063 53.3676 103.013 53.0352 105.967 52.7613C106.108 54.6207 106.245 56.4757 106.386 58.3352C101.467 58.7978 96.5528 59.4041 91.6544 60.1542C90.6401 51.9259 89.6298 43.693 88.6155 35.4647V35.4602Z" fill="white"/>
<path d="M126.692 56.6107C125.835 57.0823 123.71 57.6751 121.001 57.7739C112.58 58.1018 108.463 52.7345 107.98 46.0962C107.332 37.3378 113.365 32.3164 120.711 32.0783C123.529 31.984 125.827 32.4871 126.845 33.0485C126.435 34.8047 126.032 36.5608 125.634 38.317C124.583 37.8813 123.082 37.4681 121.162 37.531C117.443 37.6522 114.335 40.1091 114.593 45.2024C114.818 49.7208 117.443 52.3572 121.661 52.218C123.154 52.1686 124.825 51.8183 125.779 51.4051C126.084 53.1388 126.39 54.8769 126.688 56.6151L126.692 56.6107Z" fill="white"/>
<path d="M152.738 45.5123C152.134 53.5116 147.417 58.1557 140.474 57.8548C133.502 57.5763 129.63 51.8542 129.586 44.9149C129.538 37.6747 134.199 31.8403 141.75 32.1547C149.671 32.5185 153.241 38.8784 152.738 45.5078V45.5123ZM136.264 44.8745C136.183 49.5636 138.014 52.4606 140.949 52.5863C143.935 52.7166 145.819 49.7163 146.052 45.2293C146.274 40.949 144.579 37.5759 141.436 37.4367C138.377 37.3064 136.34 40.2932 136.264 44.8745Z" fill="white"/>
<path d="M177.105 52.6319C177.444 49.8292 177.866 46.5325 178.442 42.6878C178.41 42.6833 178.377 42.6744 178.345 42.6699C177.13 45.8094 175.608 49.2992 174.489 51.8773C173.326 54.6081 172.183 57.3434 171.06 60.0832C169.486 59.8227 167.912 59.5802 166.335 59.3511C166.037 56.3957 165.727 53.4404 165.393 50.485C165.095 47.7452 164.765 43.9859 164.563 40.505L164.491 40.496C163.992 43.9679 163.489 47.6419 163.094 50.4401C162.672 53.3775 162.249 56.3194 161.835 59.2568C159.979 59.0187 158.123 58.8031 156.264 58.61C157.427 50.3907 158.623 42.1713 159.858 33.9609C162.788 34.2843 165.715 34.6571 168.637 35.0748C168.915 37.3699 169.184 39.6651 169.442 41.9602C169.768 44.8078 170.062 48.1854 170.158 51.289C170.199 51.2934 170.239 51.3024 170.279 51.3069C171.301 48.3965 172.537 45.0369 173.584 42.5576C174.469 40.4601 175.367 38.3715 176.276 36.283C179.126 36.7726 181.968 37.3116 184.805 37.8954C183.863 46.1462 182.889 54.397 181.887 62.6388C179.947 62.2301 178.007 61.8484 176.063 61.489C176.413 58.5382 176.759 55.5918 177.101 52.6409L177.105 52.6319Z" fill="white"/>
<path d="M203.469 57.7564C200.736 56.9569 197.995 56.2023 195.246 55.4927C194.936 56.9838 194.63 58.475 194.32 59.9707C197.347 60.7522 200.37 61.5876 203.377 62.4814C202.958 64.2375 202.539 65.9937 202.121 67.7543C197.19 66.2946 192.231 64.9831 187.252 63.8243C188.77 55.6903 190.287 47.5608 191.805 39.4268C197.013 40.635 202.197 42.0004 207.357 43.523C206.943 45.2791 206.524 47.0398 206.11 48.7959C203.131 47.9201 200.141 47.0937 197.142 46.3211C196.872 47.6281 196.603 48.9307 196.329 50.2377C199.122 50.9563 201.912 51.7244 204.689 52.5373C204.278 54.28 203.872 56.0182 203.461 57.7609L203.469 57.7564Z" fill="white"/>
<path d="M215.287 68.4684C215.89 66.308 217.718 65.3065 219.714 66.0386C221.739 66.7796 222.628 68.7783 221.992 70.9253C221.348 73.0048 219.581 74.0244 217.589 73.2923C215.621 72.5736 214.699 70.5659 215.287 68.4639V68.4684ZM217.871 63.9455C219.074 58.6591 220.262 53.3682 221.433 48.0728C223.594 48.8363 225.752 49.6268 227.905 50.4442C226.034 55.4836 224.178 60.532 222.335 65.5849C220.849 65.0235 219.36 64.48 217.871 63.95V63.9455Z" fill="white"/>
</g>
<defs>
<clipPath id="clip0_2369_18505">
<rect width="196.3" height="42.4667" fill="white" transform="translate(31.6052 32.0649)"/>
</clipPath>
</defs>
</svg>
