<svg width="375" height="376" viewBox="0 0 375 376" fill="none" xmlns="http://www.w3.org/2000/svg">
<g clip-path="url(#clip0_2369_18252)">
<path d="M7.59377 154.159V127.208L14.2664 130.546L19.7852 147.486L14.2664 160.063C8.61965 159.652 7.46517 155.956 7.59377 154.159Z" fill="#FAB36F"/>
<path d="M53.1925 239.977C45.2508 236.72 41.7336 240.211 37.4149 242.523C30.2382 246.364 6.89779 241.568 2.17181 220.463C2.17181 219.575 1.72723 198.095 2.16984 187.289L34.8059 222.905L37.4149 215.546L60.829 207.147L122.674 193.913L203.608 189.537C204.032 194.542 204.982 205.826 205.389 210.916C205.898 217.279 184.52 226.234 177.393 228.27C170.267 230.306 144.307 227.507 137.945 232.851C131.582 238.196 115.039 239.977 110.203 239.977C105.368 239.977 102.568 243.795 94.6785 245.831C86.7887 247.867 76.8629 246.849 71.0093 243.795C65.1556 240.741 63.1196 244.049 53.1925 239.977Z" fill="#FAB36F"/>
<mask id="mask0_2369_18252" style="mask-type:alpha" maskUnits="userSpaceOnUse" x="1" y="189" width="205" height="58">
<path d="M52.8575 239.978C44.9159 236.72 41.3578 240.425 37.4316 242.559C31.0333 246.036 6.88129 242.559 2.21317 220.111L1.97363 191.206L34.7888 223.206V226.236L37.0799 215.547L60.494 207.148L122.339 193.914L203.273 189.538C203.697 194.543 204.647 205.827 205.054 210.917C205.563 217.279 184.185 226.235 177.058 228.271C169.932 230.307 143.972 227.507 137.61 232.852C131.247 238.197 114.704 239.978 109.868 239.978C105.033 239.978 102.233 243.796 94.3435 245.832C86.4537 247.868 76.528 246.85 70.6743 243.796C64.8206 240.742 62.7846 244.05 52.8575 239.978Z" fill="#FAB36F"/>
</mask>
<g mask="url(#mask0_2369_18252)">
<rect x="88.381" y="207.844" width="20.9511" height="53.7473" fill="#EDA663"/>
<rect x="32.0033" y="206.028" width="20.9511" height="53.7473" fill="#EDA663"/>
<rect x="138.096" y="191.341" width="71.3757" height="53.7473" fill="#EDA663"/>
</g>
<path d="M47.1073 218.031C39.601 217.474 39.4882 220.64 37.0303 223.592C25.722 237.174 1.03588 210.603 2.07373 187.147C3.37104 157.828 17.9981 157.07 14.8079 147.126C10.8122 134.671 -2.43349 123.367 20.9385 107.025C41.0364 96.2625 40.6056 96.3776 66.2209 93.2726C100.626 89.1022 104.449 96.0527 135.031 100.918C165.613 105.783 173.953 120.031 176.386 124.201C178.332 127.537 178.818 137.407 178.818 141.924C188.897 156.752 207.732 188.075 202.45 194.748C195.847 203.088 143.719 214.904 135.031 212.819C126.343 210.734 105.144 218.031 91.5902 223.592C78.0368 229.153 56.4903 218.727 47.1073 218.031Z" fill="#6EDE88"/>
<path d="M107.875 163.847C137.933 159.324 133.558 118.957 125.578 99.2275L130.999 100.228C140.821 118.542 143.457 131.261 144.122 148.552C144.787 165.844 130.156 185.795 86.9286 183.467C52.3465 181.605 28.8349 213.617 24.7338 226.142C16.7554 223.99 5.41766 210.973 2.2666 194.561C18.5601 162.971 70.302 169.501 107.875 163.847Z" fill="#599CFF"/>
<rect x="50.1133" y="198.998" width="2.00633" height="6.346" rx="1.00317" fill="#57C874"/>
<rect x="53.7887" y="196.744" width="2.00633" height="8.59995" rx="1.00317" fill="#57C874"/>
<rect x="57.4686" y="198.155" width="2.00633" height="7.188" rx="1.00317" fill="#57C874"/>
<rect x="108.331" y="181.506" width="2.00633" height="6.346" rx="1.00317" fill="#57C874"/>
<rect x="112.006" y="179.252" width="2.00633" height="8.59995" rx="1.00317" fill="#57C874"/>
<rect x="115.686" y="180.663" width="2.00633" height="7.188" rx="1.00317" fill="#57C874"/>
<rect x="162.11" y="120.436" width="1.37824" height="4.35934" rx="0.689119" fill="#57C874"/>
<rect x="164.636" y="118.888" width="1.37824" height="5.90768" rx="0.689119" fill="#57C874"/>
<rect x="167.162" y="119.857" width="1.37824" height="4.93775" rx="0.689119" fill="#57C874"/>
<rect x="119.298" y="98.6411" width="1.37824" height="4.35934" rx="0.689119" fill="#57C874"/>
<rect x="121.824" y="97.093" width="1.37824" height="5.90768" rx="0.689119" fill="#57C874"/>
<rect x="124.349" y="98.062" width="1.37824" height="4.93775" rx="0.689119" fill="#57C874"/>
<rect x="96.2744" y="128.756" width="1.37824" height="4.35934" rx="0.689119" fill="#57C874"/>
<rect x="98.8002" y="127.208" width="1.37824" height="5.90768" rx="0.689119" fill="#57C874"/>
<rect x="101.326" y="128.177" width="1.37824" height="4.93775" rx="0.689119" fill="#57C874"/>
<g clip-path="url(#clip1_2369_18252)">
<path d="M85.4002 185.372C85.3956 186.929 85.3864 188.486 85.3853 190.044C85.3841 192.621 85.3876 195.197 85.3899 197.774H83.203C83.2053 196.087 83.2087 194.402 83.2098 192.715C83.211 191.19 83.2098 189.664 83.2098 188.139C83.2098 188.017 83.251 187.851 83.1091 187.805C82.9672 187.757 82.8677 187.887 82.7899 188.002C82.7773 188.02 82.7635 188.04 82.7498 188.057C81.3354 189.762 79.4952 190.39 77.3438 190.226C76.7327 190.18 76.1525 189.993 75.5781 189.796C75.5643 189.84 75.5575 189.851 75.5575 189.861C75.5552 192.5 75.5517 195.138 75.5494 197.775H73.3626V189.778C72.7492 190.008 72.1495 190.172 71.527 190.234C69.046 190.481 66.3819 189.222 65.4836 186.855C64.813 185.088 65.1872 183.495 66.4117 182.099C66.6131 181.87 66.6577 181.753 66.4643 181.491C65.1208 179.67 65.6427 177.108 67.603 175.81C67.9463 175.583 68.301 175.365 68.6958 175.256C69.0449 175.162 69.2119 174.921 69.3516 174.626C70.2201 172.799 71.7204 171.883 73.6555 171.593C74.7049 171.435 75.7177 171.585 76.7041 171.956C76.7041 172.046 76.6458 172.1 76.592 172.16C75.3023 173.621 75.1901 175.563 76.3322 177.141C76.5004 177.373 76.4512 177.468 76.2876 177.641C75.5014 178.478 75.0413 179.476 75.007 180.631C74.9578 182.287 75.6673 183.597 76.9547 184.59C77.8462 185.277 78.8555 185.673 79.9839 185.803C80.9646 185.916 81.903 185.803 82.8345 185.511C83.0943 185.43 83.2201 185.305 83.2087 184.998C83.1824 184.299 83.1915 183.599 83.2053 182.899C83.2098 182.658 83.1503 182.459 83.0164 182.26C82.4168 181.369 81.8377 180.463 81.2301 179.578C81.0481 179.312 81.0813 179.17 81.3468 179.01C81.7073 178.793 82.0506 178.546 82.3985 178.307C82.5873 178.178 82.704 178.199 82.8322 178.414C83.2636 179.14 83.7237 179.85 84.1631 180.573C84.2684 180.746 84.313 180.762 84.4263 180.577C84.8531 179.873 85.3132 179.19 85.7217 178.476C85.8934 178.175 86.0307 178.182 86.2733 178.363C86.5846 178.594 86.9038 178.816 87.2403 179.005C87.5493 179.178 87.5195 179.34 87.341 179.601C86.7345 180.488 86.1497 181.389 85.5592 182.286C85.4734 182.418 85.3818 182.542 85.3841 182.721C85.3956 183.605 85.3944 184.488 85.3979 185.372H85.4002Z" fill="#6A9C72"/>
<path d="M85.3979 185.371C85.3945 184.487 85.3956 183.604 85.3841 182.72C85.3819 182.54 85.4734 182.416 85.5592 182.285C86.1497 181.388 86.7345 180.487 87.341 179.6C87.5195 179.339 87.5481 179.178 87.2403 179.005C86.9039 178.815 86.5834 178.593 86.2733 178.362C86.0296 178.181 85.8934 178.174 85.7217 178.475C85.3132 179.189 84.8532 179.872 84.4263 180.576C84.3142 180.761 84.2684 180.745 84.1631 180.572C83.7248 179.849 83.2648 179.14 82.8322 178.413C82.704 178.197 82.5873 178.176 82.3985 178.307C82.0506 178.546 81.7073 178.792 81.3468 179.009C81.0813 179.168 81.047 179.311 81.2301 179.577C81.8378 180.463 82.4168 181.368 83.0165 182.259C83.1503 182.458 83.2099 182.657 83.2053 182.898C83.1927 183.598 83.1824 184.298 83.2087 184.997C83.2202 185.304 83.0943 185.429 82.8345 185.511C81.903 185.804 80.9646 185.916 79.9839 185.803C78.8555 185.672 77.8462 185.277 76.9547 184.589C75.6673 183.597 74.9578 182.286 75.007 180.63C75.0414 179.475 75.5014 178.477 76.2876 177.64C76.4512 177.466 76.4993 177.372 76.3322 177.14C75.189 175.561 75.3023 173.62 76.592 172.159C76.6458 172.099 76.7053 172.044 76.7041 171.955C76.9364 171.891 77.06 171.678 77.2408 171.543C77.7043 171.2 78.2044 170.936 78.7537 170.771C78.9334 170.716 79.0341 170.629 79.105 170.446C79.8191 168.631 81.2221 167.656 83.0531 167.26C84.6186 166.922 86.1028 167.182 87.4772 168.03C88.3904 168.593 89.0564 169.371 89.4524 170.373C89.5359 170.586 89.6481 170.7 89.8621 170.774C91.257 171.259 92.3156 172.125 92.818 173.562C93.2574 174.822 93.048 176.007 92.2801 177.082C92.1073 177.323 92.1084 177.451 92.3179 177.669C93.9371 179.355 94.015 182.079 92.4518 183.798C90.6562 185.773 88.4316 186.25 85.914 185.546C85.7389 185.498 85.5684 185.431 85.3967 185.372L85.3979 185.371Z" fill="#6EDE88"/>
</g>
<g clip-path="url(#clip2_2369_18252)">
<path d="M23.2435 119.077C23.239 120.634 23.2298 122.192 23.2287 123.749C23.2275 126.326 23.2309 128.902 23.2332 131.479H21.0464C21.0486 129.792 21.0521 128.107 21.0532 126.42C21.0544 124.895 21.0532 123.369 21.0532 121.844C21.0532 121.722 21.0944 121.556 20.9525 121.51C20.8106 121.462 20.7111 121.592 20.6332 121.707C20.6206 121.725 20.6069 121.745 20.5932 121.762C19.1787 123.467 17.3386 124.095 15.1872 123.931C14.5761 123.885 13.9959 123.698 13.4214 123.501C13.4077 123.545 13.4008 123.556 13.4008 123.567C13.3986 126.205 13.3951 128.843 13.3928 131.48H11.2059V123.484C10.5926 123.713 9.99292 123.877 9.37038 123.939C6.8894 124.186 4.22531 122.927 3.32699 120.56C2.65639 118.793 3.0306 117.2 4.25507 115.804C4.45648 115.575 4.50111 115.458 4.30771 115.196C2.96422 113.375 3.48605 110.813 5.44635 109.515C5.78966 109.288 6.14442 109.07 6.53922 108.961C6.88825 108.867 7.05533 108.626 7.19494 108.332C8.06352 106.504 9.56378 105.588 11.4989 105.298C12.5483 105.14 13.5611 105.29 14.5475 105.661C14.5475 105.751 14.4891 105.805 14.4353 105.865C13.1456 107.326 13.0335 109.268 14.1756 110.846C14.3438 111.078 14.2946 111.173 14.1309 111.346C13.3448 112.183 12.8847 113.181 12.8504 114.336C12.8012 115.992 13.5107 117.302 14.7981 118.295C15.6896 118.982 16.6989 119.378 17.8272 119.508C18.808 119.621 19.7464 119.508 20.6779 119.217C20.9376 119.135 21.0635 119.01 21.0521 118.703C21.0258 118.004 21.0349 117.304 21.0486 116.604C21.0532 116.363 20.9937 116.164 20.8598 115.965C20.2602 115.074 19.6811 114.169 19.0735 113.283C18.8915 113.017 18.9247 112.875 19.1902 112.715C19.5507 112.498 19.894 112.251 20.2419 112.013C20.4307 111.883 20.5474 111.904 20.6756 112.119C21.107 112.845 21.567 113.555 22.0065 114.278C22.1118 114.451 22.1564 114.467 22.2697 114.282C22.6965 113.578 23.1566 112.895 23.5651 112.181C23.7368 111.88 23.8741 111.887 24.1167 112.068C24.428 112.299 24.7472 112.521 25.0837 112.71C25.3927 112.883 25.3629 113.045 25.1844 113.306C24.5779 114.193 23.9931 115.094 23.4026 115.991C23.3168 116.123 23.2252 116.247 23.2275 116.426C23.239 117.31 23.2378 118.193 23.2412 119.077H23.2435Z" fill="#6A9C72"/>
<path d="M23.2413 119.076C23.2378 118.193 23.239 117.309 23.2275 116.425C23.2252 116.245 23.3168 116.121 23.4026 115.99C23.9931 115.093 24.5779 114.192 25.1844 113.305C25.3629 113.044 25.3915 112.883 25.0837 112.71C24.7473 112.521 24.4268 112.298 24.1167 112.067C23.873 111.886 23.7368 111.879 23.5651 112.18C23.1566 112.894 22.6965 113.577 22.2697 114.281C22.1576 114.467 22.1118 114.45 22.0065 114.277C21.5682 113.554 21.1082 112.845 20.6756 112.118C20.5474 111.902 20.4307 111.881 20.2419 112.012C19.894 112.251 19.5507 112.497 19.1902 112.714C18.9247 112.874 18.8904 113.017 19.0735 113.282C19.6811 114.168 20.2602 115.073 20.8598 115.964C20.9937 116.163 21.0532 116.362 21.0487 116.603C21.0361 117.303 21.0258 118.003 21.0521 118.702C21.0635 119.009 20.9377 119.134 20.6779 119.216C19.7464 119.509 18.808 119.621 17.8273 119.508C16.6989 119.377 15.6896 118.982 14.7981 118.294C13.5107 117.302 12.8012 115.992 12.8504 114.335C12.8848 113.18 13.3448 112.183 14.131 111.345C14.2946 111.171 14.3427 111.077 14.1756 110.846C13.0324 109.266 13.1457 107.325 14.4354 105.865C14.4892 105.805 14.5487 105.749 14.5475 105.66C14.7798 105.596 14.9034 105.383 15.0842 105.249C15.5477 104.905 16.0478 104.641 16.5971 104.476C16.7767 104.421 16.8774 104.334 16.9484 104.151C17.6625 102.336 19.0655 101.361 20.8965 100.965C22.462 100.627 23.9462 100.887 25.3206 101.735C26.2338 102.298 26.8998 103.076 27.2958 104.078C27.3793 104.291 27.4914 104.405 27.7054 104.479C29.1004 104.964 30.159 105.83 30.6613 107.267C31.1008 108.527 30.8914 109.712 30.1235 110.787C29.9507 111.028 29.9518 111.156 30.1612 111.374C31.7805 113.06 31.8583 115.784 30.2951 117.503C28.4996 119.478 26.275 119.955 23.7574 119.252C23.5823 119.203 23.4118 119.136 23.2401 119.077L23.2413 119.076Z" fill="#6EDE88"/>
</g>
<g clip-path="url(#clip3_2369_18252)">
<path d="M98.864 96.6384C98.8594 98.1957 98.8503 99.753 98.8491 101.31C98.848 103.887 98.8514 106.463 98.8537 109.04H96.6668C96.6691 107.354 96.6726 105.668 96.6737 103.982C96.6748 102.457 96.6737 100.931 96.6737 99.4058C96.6737 99.2835 96.7149 99.1174 96.573 99.0713C96.4311 99.024 96.3315 99.1532 96.2537 99.2686C96.2411 99.287 96.2274 99.3066 96.2137 99.3239C94.7992 101.029 92.9591 101.656 90.8077 101.493C90.1966 101.446 89.6164 101.26 89.0419 101.062C89.0282 101.106 89.0213 101.118 89.0213 101.128C89.019 103.766 89.0156 106.404 89.0133 109.041H86.8264V101.045C86.2131 101.275 85.6134 101.438 84.9909 101.501C82.5099 101.748 79.8458 100.489 78.9475 98.1219C78.2769 96.3547 78.6511 94.7616 79.8756 93.3658C80.077 93.1363 80.1216 93.0197 79.9282 92.7579C78.5847 90.9364 79.1065 88.3744 81.0668 87.0766C81.4101 86.8494 81.7649 86.6314 82.1597 86.5229C82.5087 86.4283 82.6758 86.1872 82.8154 85.8931C83.684 84.0659 85.1843 83.1499 87.1194 82.8592C88.1688 82.7012 89.1815 82.8512 90.168 83.2226C90.168 83.3126 90.1096 83.3668 90.0558 83.4268C88.7661 84.8872 88.654 86.8298 89.7961 88.4078C89.9643 88.6397 89.9151 88.7343 89.7514 88.9073C88.9653 89.7448 88.5052 90.7426 88.4709 91.8973C88.4217 93.5538 89.1312 94.8631 90.4186 95.8563C91.3101 96.5439 92.3194 96.9395 93.4477 97.0699C94.4285 97.1829 95.3668 97.0699 96.2983 96.778C96.5581 96.6961 96.684 96.5715 96.6726 96.2647C96.6462 95.5656 96.6554 94.8654 96.6691 94.1652C96.6737 93.9241 96.6142 93.7257 96.4803 93.5262C95.8807 92.6356 95.3016 91.7301 94.6939 90.8441C94.512 90.5788 94.5452 90.4369 94.8107 90.2766C95.1711 90.0597 95.5145 89.8129 95.8623 89.5741C96.0512 89.4449 96.1679 89.4656 96.2961 89.6802C96.7275 90.4069 97.1875 91.1164 97.627 91.8397C97.7322 92.0127 97.7769 92.0288 97.8902 91.8431C98.317 91.1395 98.777 90.4565 99.1856 89.7425C99.3572 89.4414 99.4946 89.4483 99.7372 89.6295C100.048 89.8602 100.368 90.0828 100.704 90.272C101.013 90.445 100.983 90.6065 100.805 90.8672C100.198 91.7543 99.6136 92.6552 99.0231 93.5527C98.9373 93.6842 98.8457 93.8088 98.848 93.9876C98.8594 94.8712 98.8583 95.7548 98.8617 96.6384H98.864Z" fill="#6A9C72"/>
<path d="M98.8618 96.6377C98.8583 95.7541 98.8595 94.8705 98.848 93.9868C98.8457 93.8069 98.9373 93.6823 99.0231 93.5519C99.6136 92.6545 100.198 91.7536 100.805 90.8665C100.983 90.6058 101.012 90.4443 100.704 90.2712C100.368 90.0821 100.047 89.8594 99.7372 89.6287C99.4934 89.4476 99.3573 89.4407 99.1856 89.7418C98.7771 90.4558 98.317 91.1387 97.8902 91.8424C97.778 92.0281 97.7323 92.0119 97.627 91.8389C97.1887 91.1156 96.7287 90.4062 96.2961 89.6795C96.1679 89.4637 96.0512 89.443 95.8624 89.5733C95.5145 89.8121 95.1712 90.059 94.8107 90.2758C94.5452 90.435 94.5109 90.5781 94.694 90.8434C95.3016 91.7293 95.8807 92.6349 96.4803 93.5254C96.6142 93.725 96.6737 93.9234 96.6691 94.1645C96.6566 94.8647 96.6463 95.5649 96.6726 96.264C96.684 96.5708 96.5581 96.6954 96.2984 96.7773C95.3669 97.0703 94.4285 97.1822 93.4478 97.0691C92.3194 96.9388 91.3101 96.5431 90.4186 95.8556C89.1312 94.8635 88.4217 93.5531 88.4709 91.8966C88.5052 90.7419 88.9653 89.7441 89.7515 88.9066C89.9151 88.7324 89.9632 88.639 89.7961 88.4071C88.6529 86.8279 88.7662 84.8864 90.0559 83.426C90.1096 83.3661 90.1691 83.3107 90.168 83.2219C90.4003 83.1573 90.5239 82.945 90.7047 82.81C91.1682 82.4663 91.6683 82.2021 92.2176 82.0372C92.3972 81.9829 92.4979 81.8953 92.5689 81.713C93.283 79.8973 94.686 78.9226 96.5169 78.5269C98.0824 78.1889 99.5667 78.4485 100.941 79.2963C101.854 79.8593 102.52 80.6379 102.916 81.6392C103 81.8526 103.112 81.9668 103.326 82.0406C104.721 82.5251 105.779 83.3914 106.282 84.8288C106.721 86.0884 106.512 87.2731 105.744 88.3483C105.571 88.5894 105.572 88.7174 105.782 88.9354C107.401 90.6219 107.479 93.3455 105.916 95.0643C104.12 97.0391 101.895 97.5167 99.3779 96.813C99.2028 96.7646 99.0323 96.6977 98.8606 96.6389L98.8618 96.6377Z" fill="#6EDE88"/>
</g>
<g clip-path="url(#clip4_2369_18252)">
<path d="M157.948 108.612C157.943 109.999 157.935 111.387 157.934 112.774C157.933 115.07 157.936 117.365 157.938 119.661H155.966C155.968 118.158 155.971 116.657 155.972 115.154C155.973 113.796 155.972 112.436 155.972 111.077C155.972 110.968 156.009 110.82 155.881 110.779C155.753 110.737 155.663 110.852 155.593 110.955C155.582 110.971 155.569 110.989 155.557 111.004C154.281 112.523 152.622 113.082 150.681 112.936C150.13 112.895 149.607 112.729 149.088 112.553C149.076 112.592 149.07 112.602 149.07 112.612C149.068 114.962 149.065 117.312 149.063 119.662H147.09V112.538C146.537 112.742 145.996 112.888 145.435 112.944C143.197 113.164 140.794 112.042 139.984 109.933C139.379 108.359 139.716 106.94 140.821 105.696C141.002 105.492 141.043 105.388 140.868 105.155C139.656 103.532 140.127 101.249 141.895 100.093C142.205 99.8907 142.525 99.6965 142.881 99.5998C143.196 99.5156 143.346 99.3008 143.472 99.0387C144.256 97.4108 145.609 96.5948 147.354 96.3358C148.301 96.195 149.214 96.3286 150.104 96.6596C150.104 96.7397 150.051 96.788 150.003 96.8415C148.84 98.1426 148.739 99.8732 149.769 101.279C149.92 101.486 149.876 101.57 149.728 101.724C149.019 102.47 148.604 103.359 148.573 104.388C148.529 105.864 149.169 107.03 150.33 107.915C151.134 108.528 152.045 108.88 153.062 108.996C153.947 109.097 154.793 108.996 155.633 108.736C155.868 108.663 155.981 108.552 155.971 108.279C155.947 107.656 155.955 107.032 155.968 106.408C155.972 106.194 155.918 106.017 155.798 105.839C155.257 105.046 154.734 104.239 154.186 103.45C154.022 103.213 154.052 103.087 154.292 102.944C154.617 102.751 154.926 102.531 155.24 102.318C155.411 102.203 155.516 102.222 155.631 102.413C156.021 103.06 156.435 103.692 156.832 104.337C156.927 104.491 156.967 104.505 157.069 104.34C157.454 103.713 157.869 103.104 158.238 102.468C158.392 102.2 158.516 102.206 158.735 102.367C159.016 102.573 159.304 102.771 159.607 102.94C159.886 103.094 159.859 103.238 159.698 103.47C159.151 104.261 158.624 105.063 158.091 105.863C158.014 105.98 157.931 106.091 157.933 106.25C157.943 107.037 157.942 107.825 157.946 108.612H157.948Z" fill="#6A9C72"/>
<path d="M157.945 108.611C157.942 107.824 157.943 107.036 157.932 106.249C157.93 106.089 158.013 105.978 158.09 105.862C158.623 105.062 159.15 104.26 159.697 103.469C159.858 103.237 159.884 103.093 159.606 102.939C159.303 102.77 159.014 102.572 158.734 102.367C158.514 102.205 158.392 102.199 158.237 102.467C157.868 103.103 157.453 103.712 157.068 104.339C156.967 104.504 156.926 104.49 156.831 104.336C156.436 103.691 156.021 103.059 155.63 102.412C155.515 102.22 155.41 102.201 155.239 102.317C154.926 102.53 154.616 102.75 154.291 102.943C154.051 103.085 154.02 103.212 154.185 103.449C154.734 104.238 155.256 105.045 155.797 105.838C155.917 106.016 155.971 106.193 155.967 106.407C155.956 107.031 155.946 107.655 155.97 108.278C155.98 108.551 155.867 108.662 155.633 108.735C154.792 108.996 153.946 109.096 153.061 108.995C152.044 108.879 151.133 108.527 150.329 107.914C149.168 107.03 148.528 105.863 148.572 104.387C148.603 103.358 149.018 102.469 149.727 101.723C149.875 101.568 149.918 101.485 149.768 101.278C148.737 99.8712 148.839 98.1416 150.002 96.8405C150.051 96.7871 150.104 96.7378 150.103 96.6586C150.313 96.6011 150.424 96.412 150.587 96.2917C151.005 95.9855 151.456 95.7501 151.952 95.6032C152.114 95.5549 152.205 95.4768 152.269 95.3144C152.913 93.6968 154.178 92.8283 155.83 92.4758C157.242 92.1747 158.58 92.4059 159.82 93.1613C160.644 93.6628 161.244 94.3565 161.602 95.2486C161.677 95.4387 161.778 95.5405 161.971 95.6062C163.229 96.0379 164.184 96.8097 164.637 98.0902C165.034 99.2125 164.845 100.268 164.152 101.226C163.996 101.441 163.997 101.555 164.186 101.749C165.647 103.251 165.717 105.678 164.307 107.209C162.687 108.969 160.681 109.394 158.41 108.767C158.252 108.724 158.098 108.664 157.944 108.612L157.945 108.611Z" fill="#6EDE88"/>
</g>
<path d="M78.1528 101.618C77.8322 100.841 77.113 100.438 76.3851 100.408C75.6052 100.367 74.8166 100.751 74.444 101.558L65.5184 121.089L68.898 125.962L76.3851 119.879L80.8478 122.663L85.5359 119.596L78.1615 101.618H78.1528Z" fill="#BDFFCE"/>
<path d="M85.5311 119.594L80.843 122.661L76.3802 119.877L68.8932 125.95L65.5136 121.078L49.335 156.499H76.3802H100.679L85.5311 119.594Z" fill="#57C874"/>
<path d="M51.3458 91.967C50.9645 91.0477 50.1153 90.5756 49.2488 90.5342C48.3302 90.4928 47.3857 90.9317 46.9524 91.8841L36.3804 114.85L40.3752 120.581L49.2488 113.434L54.5348 116.705L60.0894 113.103L51.3545 91.967H51.3458Z" fill="#BDFFCE"/>
<path d="M57.4159 106.662L53.7734 110.289L49.2495 107.008L42.2827 113.103L40.146 106.662L17.2129 156.501H49.2495H78.0279L57.4159 106.662Z" fill="#56D576"/>
<rect x="15.9578" y="150.153" width="2.00633" height="6.346" rx="1.00317" fill="#57C874"/>
<rect x="19.6332" y="147.9" width="2.00633" height="8.59995" rx="1.00317" fill="#57C874"/>
<rect x="23.313" y="149.311" width="2.00633" height="7.188" rx="1.00317" fill="#57C874"/>
<path d="M226.16 163.382C226.038 165.405 225.794 167.425 225.432 169.42C222.014 188.265 230.196 206.026 257.544 199.248C280.435 193.575 289.184 184.754 289.184 165.393C289.184 146.032 274.139 130.337 255.58 130.337C238.004 130.337 227.25 145.347 226.16 163.382Z" fill="#FF8E8E"/>
<rect x="255.898" y="186.023" width="31.0671" height="41.9619" transform="rotate(-32.9722 255.898 186.023)" fill="#FF8E8E"/>
<ellipse cx="233.364" cy="168.572" rx="2.05546" ry="3.67484" transform="rotate(-8.78339 233.364 168.572)" fill="#1F1F1F"/>
<path d="M232.933 184.459C234.756 185.024 239.948 184.623 246.13 178.493" stroke="#1F1F1F" stroke-width="2.53205" stroke-linecap="round"/>
<path d="M200.005 228.163L192.384 201.224C190.894 197.657 183.742 181.799 188.071 176.414C192.4 171.03 196.733 165.696 198.478 163.529C199.209 162.789 201.175 161.793 203.197 163.735C205.22 165.678 200.181 168.828 204.265 173.24C196.079 173.24 213.727 174.626 214.739 176.414C218.376 182.841 220.688 195.055 220.028 195.705L238.785 231.743L286.755 211.316L297.252 234.726L252.397 262.283C238.242 269.253 214.199 277.347 205.902 251.113L200.005 228.163Z" fill="#FF8E8E"/>
<path d="M333.69 377.514C327.976 357.29 333.213 338.867 336.545 336.329L375.392 305.883V377.514H333.69Z" fill="#290000"/>
<path d="M209.066 178L141.263 183.541C138.336 182.588 136.475 174.667 136.785 158.767C137.095 142.867 148.931 134.46 153.561 133.887L210.524 151.233C206.655 151.213 201.836 156.123 202.601 165.78C203.212 173.505 205.986 176.214 209.066 178Z" fill="#386EFF"/>
<ellipse cx="209.472" cy="164.533" rx="7.87874" ry="13.4886" transform="rotate(3.11766 209.472 164.533)" fill="#0F44D2"/>
<path d="M206.921 165.337C206.641 160.405 208.963 157.156 210.159 156.147L220.635 156.718C218.402 156.596 216.457 159.294 215.751 164.267C215.186 168.246 218.692 171.761 219.525 172.84L209.377 172.288C208.703 172.112 207.201 170.269 206.921 165.337Z" fill="#386EFF"/>
<ellipse cx="219.919" cy="164.77" rx="4.25517" ry="8.0787" transform="rotate(3.11766 219.919 164.77)" fill="#0F44D2"/>
<ellipse cx="220.481" cy="164.803" rx="1.86327" ry="4.5975" transform="rotate(3.11766 220.481 164.803)" fill="#00103C"/>
<path d="M201.372 193.748L128.812 204.098C125.611 203.209 116.918 197.396 116.32 179.555C115.723 161.714 127.601 154.977 132.545 154.052L201.372 163.656C197.211 163.869 192.319 169.668 193.707 180.445C194.816 189.067 197.957 191.934 201.372 193.748Z" fill="#386EFF"/>
<ellipse cx="201.024" cy="178.629" rx="8.48164" ry="15.1416" fill="#0F44D2"/>
<path d="M198.327 179.687C197.738 174.176 200.043 170.392 201.27 169.189H212.564C210.156 169.189 208.224 172.331 207.756 177.949C207.381 182.443 211.356 186.169 212.315 187.328H201.374C200.639 187.172 198.917 185.198 198.327 179.687Z" fill="#386EFF"/>
<ellipse cx="212.267" cy="178.258" rx="4.58078" ry="9.06874" fill="#0F44D2"/>
<ellipse cx="212.867" cy="178.257" rx="2.00585" ry="5.16092" fill="#00103C"/>
<path d="M266.62 165.48C258.829 163.71 259.97 159.885 258.74 155.95C256.354 162.337 243.865 161.755 237.786 161.366L240.331 152.464C236.874 158.687 229.837 164.408 227.46 164.552V159.928C225.341 164.039 221.951 166.908 218.95 167.959C221.84 159.928 213.741 150.059 228.494 134.243C243.248 118.428 263.647 125.141 269.547 130.059C271.663 129.273 280.632 126.785 287.373 136.288C298.329 151.729 288.841 173.563 287.858 178.088L280.954 182.065L268.947 169.833L266.62 165.48Z" fill="#1F1F1F"/>
<ellipse cx="264.584" cy="162.637" rx="8.68585" ry="9.88071" fill="#FF8E8E"/>
<path d="M201.663 163.528L137.146 154.761C137.372 152.788 138.226 149.768 138.941 148.078L202.532 158.753L206.935 164.69L215.671 165.658C215.861 172.17 218.738 172.636 219.3 172.845L215.861 172.636C214.751 169.886 213.414 169.201 212.096 169.201L207.669 169.15C205.77 165.627 203.224 163.952 201.663 163.528Z" fill="black" fill-opacity="0.15"/>
<path d="M297.021 198.063C346.836 185.16 390.73 197.404 398.838 209.489L391.679 247.85L383.612 276.202L383.612 313.7L330.402 344.491L262.418 276.202L235.982 256.429C240.033 221.338 278.362 202.897 297.021 198.063Z" fill="#60B0FF"/>
<path d="M145.166 256.771L139.043 220.687C137.709 215.876 131.099 194.408 137.511 188.206C143.924 182.005 150.335 175.868 152.919 173.373C153.974 172.542 156.654 171.583 158.932 174.397C161.21 177.211 170.826 190.534 175.349 196.844C176.131 198.072 186.146 194.2 185.918 196.844C184.799 209.809 176.299 217.339 175.349 218.065L187.669 259.648L263.404 214.336L268.006 280.489L206.102 308.575C186.845 315.227 154.738 321.726 148.332 286.779L145.166 256.771Z" fill="#FF8E8E"/>
<mask id="mask1_2369_18252" style="mask-type:alpha" maskUnits="userSpaceOnUse" x="134" y="172" width="135" height="142">
<path d="M145.166 256.773L139.043 220.688C137.708 215.877 131.098 194.409 137.511 188.207C143.923 182.006 150.334 175.87 152.919 173.374C153.974 172.543 156.653 171.584 158.931 174.398C161.21 177.213 170.826 190.536 175.349 196.845C176.131 198.074 186.146 194.202 185.918 196.845C184.798 209.811 176.298 217.34 175.349 218.066L187.669 259.649L263.403 214.338L268.006 280.49L206.102 308.577C186.845 315.228 154.738 321.727 148.331 286.78L145.166 256.773Z" fill="#FF8E8E"/>
</mask>
<g mask="url(#mask1_2369_18252)">
<path d="M138.557 178.779C138.726 182.861 140.1 191.996 144.24 195.881" stroke="#E06262" stroke-width="2.37625" stroke-linecap="round"/>
<path d="M148.057 172.903C148.227 176.985 149.6 186.12 153.74 190.005" stroke="#E06262" stroke-width="2.37625" stroke-linecap="round"/>
</g>
<path d="M209.979 246.182L271.293 209.229H279.957L272.436 281.499L237.609 298.831L209.979 246.182Z" fill="#60B0FF"/>
<path fill-rule="evenodd" clip-rule="evenodd" d="M85.6879 257.334H-65.8627C-65.8637 257.192 -65.8643 257.05 -65.8643 256.908C-65.8643 235.072 -53.3464 217.371 -37.9047 217.371C-32.4182 217.371 -27.3008 219.606 -22.9828 223.467C-15.101 210.2 1.66006 201.043 21.0635 201.043C45.4486 201.043 65.6602 215.506 69.3191 234.412C77.9644 237.94 84.4098 246.704 85.6879 257.334Z" fill="url(#paint0_linear_2369_18252)"/>
<path fill-rule="evenodd" clip-rule="evenodd" d="M58.6501 280.302H-64.024C-64.0249 280.186 -64.0253 280.07 -64.0253 279.954C-64.0253 262.135 -53.9076 247.69 -41.4266 247.69C-37.1526 247.69 -33.1557 249.384 -29.7473 252.327C-24.2194 241.683 -12.7137 234.365 0.584045 234.365C14.582 234.365 26.5942 242.474 31.7383 254.036C33.8184 253.073 36.0522 252.551 38.3774 252.551C49.5771 252.551 58.6562 264.676 58.6562 279.633C58.6562 279.857 58.6542 280.08 58.6501 280.302Z" fill="url(#paint1_linear_2369_18252)"/>
<path fill-rule="evenodd" clip-rule="evenodd" d="M209.98 78.3809H141.274C141.274 78.3162 141.273 78.2515 141.273 78.1868C141.273 68.2872 146.949 60.2621 153.949 60.2621C156.436 60.2621 158.756 61.2749 160.714 63.0248C164.287 57.0104 171.886 52.8589 180.683 52.8589C191.738 52.8589 200.901 59.4159 202.56 67.9873C206.48 69.5872 209.402 73.5609 209.98 78.3809Z" fill="url(#paint2_linear_2369_18252)"/>
</g>
<defs>
<linearGradient id="paint0_linear_2369_18252" x1="9.9118" y1="201.043" x2="9.9118" y2="257.334" gradientUnits="userSpaceOnUse">
<stop stop-color="#DEF5F9" stop-opacity="0.53"/>
<stop offset="1" stop-color="#C0EBF2"/>
</linearGradient>
<linearGradient id="paint1_linear_2369_18252" x1="-2.77818" y1="234.365" x2="-2.77818" y2="280.302" gradientUnits="userSpaceOnUse">
<stop stop-color="white" stop-opacity="0.93"/>
<stop offset="1" stop-color="#C0EBF2"/>
</linearGradient>
<linearGradient id="paint2_linear_2369_18252" x1="175.627" y1="52.8589" x2="175.627" y2="78.3809" gradientUnits="userSpaceOnUse">
<stop stop-color="#DCF4F8" stop-opacity="0.27"/>
<stop offset="1" stop-color="#C0EBF2"/>
</linearGradient>
<clipPath id="clip0_2369_18252">
<rect width="375" height="375" fill="white" transform="translate(0 0.5)"/>
</clipPath>
<clipPath id="clip1_2369_18252">
<rect width="28.4283" height="30.658" fill="white" transform="translate(65.1523 167.116)"/>
</clipPath>
<clipPath id="clip2_2369_18252">
<rect width="28.4283" height="30.658" fill="white" transform="translate(2.99792 100.821)"/>
</clipPath>
<clipPath id="clip3_2369_18252">
<rect width="28.4283" height="30.658" fill="white" transform="translate(78.6184 78.3821)"/>
</clipPath>
<clipPath id="clip4_2369_18252">
<rect width="25.6413" height="27.3135" fill="white" transform="translate(139.688 92.3445)"/>
</clipPath>
</defs>
</svg>
