<svg width="32" height="32" viewBox="0 0 32 32" fill="none" xmlns="http://www.w3.org/2000/svg">
<g id="Logo">
<g id="Group 52">
<circle id="Ellipse 1" cx="16" cy="16" r="16" fill="#FF0DDF"/>
<path id="Subtract" fill-rule="evenodd" clip-rule="evenodd" d="M12.1821 8.54406C11.39 9.96265 10.9941 11.7305 10.9987 13.1988C11.0014 14.0336 11.1331 14.8718 11.4786 15.5224C11.6554 15.8555 11.9059 16.1719 12.2556 16.3937C12.6163 16.6226 13.0332 16.7188 13.4724 16.6779C14.3902 16.5924 14.8861 15.8583 15.124 15.2193C15.3708 14.5564 15.4564 13.7323 15.4347 12.9054C15.3974 11.4831 15.0331 9.80247 14.3228 8.51779C14.8417 7.94672 15.4237 7.67182 16.0535 7.70651C16.5906 7.73609 17.1207 8.01323 17.613 8.53243C16.8969 9.90048 16.5643 11.671 16.6069 13.1271C16.6313 13.9596 16.7804 14.8025 17.1413 15.4445C17.3265 15.7738 17.5896 16.0889 17.9582 16.2972C18.3404 16.5133 18.7727 16.5781 19.2144 16.4996C20.0714 16.3474 20.5781 15.7074 20.8337 15.0374C21.0851 14.3788 21.1485 13.5806 21.0954 12.785C21.0028 11.4004 20.5404 9.7958 19.7526 8.49332C20.0822 8.16023 20.4124 8.03129 20.7299 8.04433C21.634 8.08148 22.544 8.64933 23.2626 9.78397C23.9795 10.9157 24.4508 12.5428 24.4508 14.4628C24.4508 16.3996 23.9767 18.8474 22.6871 20.8228C21.4244 22.7572 19.358 24.2813 16.0182 24.4329C13.4999 24.5472 11.5273 23.9558 9.99241 22.8646C9.04031 22.1878 8.23045 21.2998 7.55801 20.2217L5.95654 20.9445C6.75559 22.2794 7.75628 23.4162 8.98443 24.2893C10.88 25.6369 13.2487 26.307 16.097 26.1777C20.0275 25.9994 22.5933 24.1564 24.1452 21.7792C25.6703 19.4429 26.1932 16.6345 26.1932 14.4628C26.1932 12.2745 25.6588 10.3084 24.7336 8.84778C23.8103 7.39011 22.4421 6.36661 20.8012 6.2992C19.9402 6.26383 19.2288 6.60939 18.6665 7.1209C17.9902 6.48073 17.1485 6.01758 16.1491 5.96254C14.9545 5.89675 13.978 6.40179 13.2273 7.14291C12.7327 6.73225 12.1268 6.45402 11.4082 6.45402C9.80214 6.45402 8.49382 7.70791 7.72562 9.28206C6.93515 10.9018 6.58553 13.0765 6.97821 15.4238C7.70259 19.7538 11.5276 22.494 16.2038 22.0168C19.5734 21.6729 21.5346 19.5939 22.4796 17.9358L20.7607 17.4101C19.9583 18.6402 18.4604 20.0308 16.0273 20.2791C12.1651 20.6733 9.25305 18.4609 8.69665 15.135C8.3588 13.1154 8.6737 11.3141 9.29082 10.0495C9.9302 8.73936 10.7725 8.20062 11.4082 8.20062C11.6496 8.20062 11.9108 8.29758 12.1821 8.54406ZM18.7421 10.3515C18.4646 11.2209 18.3231 12.2046 18.3486 13.0759C18.3692 13.7804 18.497 14.2982 18.6593 14.5869C18.7357 14.7229 18.7959 14.7656 18.814 14.7759L18.815 14.7764C18.8208 14.78 18.8407 14.7922 18.9103 14.7798C18.9585 14.7713 19.0822 14.7386 19.2063 14.4133C19.3348 14.0768 19.4006 13.5571 19.3568 12.9017C19.3024 12.0876 19.0874 11.1799 18.7421 10.3515ZM13.2462 10.4044C12.9148 11.3138 12.7384 12.317 12.7412 13.1932C12.7434 13.8894 12.8592 14.4052 13.0167 14.7019C13.0914 14.8425 13.1563 14.8981 13.1874 14.9179C13.2064 14.93 13.2337 14.944 13.2992 14.9397C13.329 14.9196 13.4036 14.845 13.4916 14.6087C13.6309 14.2345 13.7114 13.6577 13.6929 12.9514C13.6708 12.1088 13.5123 11.2016 13.2462 10.4044ZM13.2854 14.9461C13.2852 14.9454 13.289 14.9429 13.2974 14.941C13.2898 14.9458 13.2856 14.9468 13.2854 14.9461Z" fill="#F2F249"/>
</g>
</g>
</svg>
